<?xml version="1.0" encoding="utf-8"?>
<!-- Generator: Adobe Illustrator 23.0.0, SVG Export Plug-In . SVG Version: 6.00 Build 0)  -->
<svg version="1.1" id="Capa_1" xmlns="http://www.w3.org/2000/svg" xmlns:xlink="http://www.w3.org/1999/xlink" x="0px" y="0px"
	 viewBox="0 0 300 66" style="enable-background:new 0 0 300 66;" xml:space="preserve">
<style type="text/css">
	.st0{fill:#FFFFFF;}
</style>
<g>
	<g>
		<path class="st0" d="M30.1,55.7c0,3.8,0.5,6.5,1.6,8.2c-0.9,0.3-1.7,0.6-2.4,0.7c-0.7,0.1-1.5,0.2-2.3,0.2c-1.7,0-3-0.3-3.9-1
			c-0.9-0.7-1.4-1.6-1.7-2.9c-1.1,1.1-2.4,2-4.2,2.8c-1.7,0.8-3.8,1.1-6.3,1.1c-1.3,0-2.6-0.2-3.9-0.5c-1.3-0.4-2.5-0.9-3.5-1.7
			c-1.1-0.8-1.9-1.9-2.6-3.3c-0.7-1.4-1-3-1-5C0,52,0.6,50,1.8,48.5c1.2-1.5,2.6-2.7,4.4-3.6c1.8-0.9,3.7-1.5,5.7-1.8
			c2.1-0.3,3.9-0.5,5.7-0.6c0.6,0,1.1-0.1,1.7-0.1c0.5,0,1.1,0,1.5,0v-1.3c0-1.8-0.5-3.1-1.5-3.9c-1-0.8-2.6-1.2-4.8-1.2
			c-2.1,0-3.9,0.3-5.5,1c-1.6,0.7-3.2,1.4-4.7,2.3c-0.7-0.8-1.2-1.7-1.6-2.7c-0.4-1-0.6-1.7-0.6-2.2c0-0.7,0.4-1.3,1.1-1.9
			c0.7-0.6,1.8-1.2,3-1.7c1.3-0.5,2.8-0.9,4.4-1.2c1.7-0.3,3.4-0.5,5.3-0.5c2.6,0,4.8,0.3,6.6,0.8c1.8,0.5,3.2,1.3,4.4,2.4
			c1.1,1.1,1.9,2.5,2.4,4.1c0.5,1.6,0.7,3.6,0.7,5.8V55.7z M20.9,47.4c-0.3,0-0.7,0-1,0c-0.3,0-0.7,0-1,0.1
			c-1.2,0.1-2.4,0.2-3.5,0.4c-1.2,0.2-2.2,0.5-3.1,1c-0.9,0.5-1.6,1.1-2.2,1.9c-0.6,0.8-0.9,1.7-0.9,2.9c0,1.3,0.4,2.5,1.1,3.4
			c0.8,0.9,2.1,1.4,3.9,1.4c0.9,0,1.8-0.1,2.6-0.4c0.8-0.2,1.5-0.5,2.1-0.9c0.6-0.4,1.1-0.8,1.5-1.3c0.4-0.5,0.5-0.9,0.5-1.3V47.4z"
			/>
		<path class="st0" d="M66.8,35.5c0-1.2,0.2-2.2,0.6-2.9c0.4-0.7,0.9-1.3,1.5-1.7c0.6-0.4,1.3-0.7,2.1-0.8c0.8-0.1,1.5-0.2,2.3-0.2
			c0.8,0,1.5,0,2.2,0.1c0.7,0.1,1.1,0.1,1.1,0.2v28.7c0,1.2-0.2,2.2-0.5,2.9c-0.3,0.8-0.7,1.4-1.3,1.8c-0.5,0.5-1.2,0.8-2,0.9
			c-0.8,0.2-1.6,0.3-2.6,0.3c-0.8,0-1.5,0-2.1-0.1c-0.7,0-1.1-0.1-1.3-0.2V35.5z"/>
		<path class="st0" d="M142.4,55.7c0,3.8,0.5,6.5,1.6,8.2c-0.9,0.3-1.7,0.6-2.4,0.7c-0.7,0.1-1.5,0.2-2.3,0.2c-1.7,0-3-0.3-3.9-1
			c-0.9-0.7-1.4-1.6-1.7-2.9c-1.1,1.1-2.4,2-4.2,2.8c-1.7,0.8-3.8,1.1-6.3,1.1c-1.3,0-2.6-0.2-3.9-0.5c-1.3-0.4-2.5-0.9-3.5-1.7
			c-1.1-0.8-1.9-1.9-2.6-3.3c-0.7-1.4-1-3-1-5c0-2.4,0.6-4.4,1.8-5.9c1.2-1.5,2.6-2.7,4.4-3.6c1.8-0.9,3.7-1.5,5.7-1.8
			c2.1-0.3,3.9-0.5,5.7-0.6c0.6,0,1.1-0.1,1.7-0.1c0.5,0,1.1,0,1.5,0v-1.3c0-1.8-0.5-3.1-1.5-3.9c-1-0.8-2.6-1.2-4.8-1.2
			c-2.1,0-3.9,0.3-5.5,1c-1.6,0.7-3.2,1.4-4.7,2.3c-0.7-0.8-1.2-1.7-1.6-2.7c-0.4-1-0.6-1.7-0.6-2.2c0-0.7,0.4-1.3,1.1-1.9
			c0.7-0.6,1.8-1.2,3-1.7c1.3-0.5,2.8-0.9,4.4-1.2c1.7-0.3,3.4-0.5,5.3-0.5c2.6,0,4.8,0.3,6.6,0.8c1.8,0.5,3.2,1.3,4.4,2.4
			c1.1,1.1,1.9,2.5,2.4,4.1c0.5,1.6,0.7,3.6,0.7,5.8V55.7z M133.2,47.4c-0.3,0-0.7,0-1,0c-0.3,0-0.7,0-1,0.1
			c-1.2,0.1-2.4,0.2-3.5,0.4c-1.2,0.2-2.2,0.5-3.1,1c-0.9,0.5-1.6,1.1-2.2,1.9c-0.6,0.8-0.9,1.7-0.9,2.9c0,1.3,0.4,2.5,1.1,3.4
			c0.8,0.9,2.1,1.4,3.9,1.4c0.9,0,1.8-0.1,2.6-0.4c0.8-0.2,1.5-0.5,2.1-0.9c0.6-0.4,1.1-0.8,1.5-1.3c0.4-0.5,0.5-0.9,0.5-1.3V47.4z"
			/>
		<path class="st0" d="M65.3,30.8c-0.6-0.2-1.3-0.5-2.2-0.7c-0.9-0.2-1.8-0.3-2.8-0.3c-1,0-1.9,0.1-2.6,0.4
			c-0.7,0.3-1.3,0.7-1.8,1.3c-0.5,0.6-0.9,1.3-1.2,2.1c-0.3,0.8-0.7,1.8-1,2.8L48.2,51l-5.3-14.2c-0.3-1-0.6-2-0.9-2.9
			c-0.3-0.9-0.7-1.6-1.2-2.2c-0.5-0.6-1.1-1.1-1.9-1.4c-0.8-0.3-1.7-0.5-2.9-0.5c-1.9,0-3.6,0.3-5.3,1l12,29.6c0.7,2.3,2.9,4,5.4,4
			c2.5,0,4.6-1.6,5.3-3.8L65.3,30.8z"/>
		<path class="st0" d="M112.9,30.8c-0.6-0.2-1.3-0.5-2.2-0.7c-0.9-0.2-1.8-0.3-2.8-0.3c-1,0-1.9,0.1-2.6,0.4
			c-0.7,0.3-1.3,0.7-1.8,1.3c-0.5,0.6-0.9,1.3-1.2,2.1c-0.3,0.8-0.7,1.8-1,2.8L95.8,51l-5.3-14.2c-0.3-1-0.6-2-0.9-2.9
			c-0.3-0.9-0.7-1.6-1.2-2.2c-0.5-0.6-1.1-1.1-1.9-1.4c-0.8-0.3-1.7-0.5-2.9-0.5c-1.9,0-3.6,0.3-5.3,1l12,29.6c0.7,2.3,2.9,4,5.4,4
			c2.5,0,4.6-1.6,5.3-3.8L112.9,30.8z"/>
		<g id="XMLID_3_">
			<path id="XMLID_32_" class="st0" d="M165.4,57.8c1,0,2-0.1,2.9-0.4c0.9-0.2,1.6-0.5,2.3-0.9c0.7-0.4,1.2-0.7,1.7-1.1
				c0.5-0.4,0.8-0.7,1.1-1c0.5,0.6,1.1,1.4,1.6,2.5c0.5,1.1,0.8,2,0.8,2.8c0,0.5-0.1,0.9-0.3,1.4c-0.2,0.5-0.6,0.9-1.2,1.4
				c-0.9,0.7-2.2,1.3-3.9,1.9c-1.7,0.6-3.8,0.9-6.4,0.9c-1.7,0-3.6-0.2-5.6-0.7c-2-0.5-3.9-1.4-5.6-2.7c-1.7-1.3-3.1-3.2-4.3-5.5
				c-1.1-2.4-1.7-5.4-1.7-9.2c0-3.6,0.6-6.6,1.8-8.9c1.2-2.3,2.7-4.1,4.4-5.4c1.8-1.3,3.6-2.2,5.6-2.7c2-0.5,3.7-0.7,5.3-0.7
				c2,0,3.8,0.2,5.4,0.6c1.7,0.4,3,1,4.1,1.7c0.9,0.6,1.5,1.1,1.9,1.6c0.4,0.5,0.5,1.1,0.5,1.9c0,0.7-0.2,1.5-0.6,2.5
				c-0.4,1-1,1.9-1.6,2.7c-0.8-0.8-1.9-1.6-3.4-2.4c-1.5-0.8-3.1-1.2-4.9-1.2c-3.1,0-5.4,1-6.7,2.9c-1.3,1.9-2,4.4-2,7.4
				c0,1.5,0.1,3,0.4,4.3c0.3,1.3,0.8,2.5,1.5,3.5c0.7,1,1.6,1.8,2.7,2.4C162.4,57.5,163.8,57.8,165.4,57.8z"/>
			<path id="XMLID_30_" class="st0" d="M199.9,30.1c0,0,0.4,0,1.1-0.1s1.4-0.1,2.1-0.1c0.8,0,1.6,0.1,2.4,0.3
				c0.8,0.2,1.5,0.5,2.1,0.9c0.6,0.4,1.1,1,1.5,1.7c0.4,0.7,0.6,1.7,0.6,2.8V64h-6.5c-1.2,0-1.9-0.3-2.2-1c-0.3-0.6-0.5-1.6-0.5-2.8
				c-0.8,1.1-2.1,2.1-3.7,3c-1.7,0.9-3.9,1.4-6.7,1.4c-3.4,0-5.9-0.7-7.5-2c-1.6-1.3-2.7-3.1-3.1-5.3c-0.2-1.1-0.4-2.3-0.5-3.6
				c-0.1-1.3-0.1-2.5-0.1-3.8V30.1c0.3,0,0.7,0,1.1-0.1c0.3,0,0.7-0.1,1-0.1c0.4,0,0.7,0,1,0c1.9,0,3.5,0.4,4.7,1.2
				c1.2,0.8,1.9,2.3,1.9,4.4v14.1c0,1,0,2,0.1,2.9c0.1,0.9,0.3,1.7,0.6,2.3c0.3,0.6,0.8,1.1,1.5,1.5c0.7,0.4,1.7,0.5,2.9,0.5
				c1.8,0,3.3-0.4,4.5-1.1c1.3-0.7,1.9-1.7,1.9-2.7V30.1z"/>
			<path id="XMLID_28_" class="st0" d="M224.6,33.5c0.3-0.4,0.7-0.9,1.1-1.4c0.5-0.5,1.1-1,1.7-1.4c0.7-0.4,1.5-0.8,2.3-1.1
				c0.8-0.3,1.7-0.4,2.7-0.4c0.6,0,1.2,0,1.8,0.1c0.6,0.1,1.2,0.3,1.8,0.5c0.5,0.3,1,0.6,1.3,1.1c0.3,0.4,0.5,1,0.5,1.7
				c0,1-0.3,2.2-0.8,3.6c-0.5,1.3-1,2.5-1.6,3.4c-0.8-0.7-1.6-1.2-2.4-1.5c-0.8-0.4-1.8-0.5-2.9-0.5c-1.5,0-2.7,0.4-3.7,1.3
				c-1,0.9-1.5,1.9-1.5,3.1v22h-9.7V30.2c0.2,0,0.5-0.1,0.9-0.1c0.3,0,0.6-0.1,1-0.1c0.4,0,0.8,0,1.4,0c1.5,0,2.8,0.3,4,0.9
				C223.6,31.4,224.3,32.3,224.6,33.5z"/>
			<path id="XMLID_13_" class="st0" d="M267.3,55.7c0,3.8,0.5,6.5,1.6,8.2c-0.9,0.3-1.7,0.6-2.4,0.7c-0.7,0.1-1.5,0.2-2.3,0.2
				c-1.7,0-3-0.3-3.9-1c-0.9-0.7-1.4-1.6-1.7-2.9c-1,1.1-2.4,2-4.1,2.8c-1.7,0.8-3.8,1.1-6.3,1.1c-1.3,0-2.6-0.2-3.9-0.5
				c-1.3-0.4-2.5-0.9-3.5-1.7c-1-0.8-1.9-1.9-2.6-3.2c-0.7-1.4-1-3-1-4.9c0-2.4,0.6-4.4,1.7-5.9c1.2-1.5,2.6-2.7,4.4-3.6
				c1.8-0.9,3.7-1.5,5.7-1.8c2-0.3,3.9-0.5,5.6-0.6c0.6,0,1.1-0.1,1.7-0.1c0.5,0,1.1,0,1.5,0v-1.3c0-1.8-0.5-3.1-1.5-3.9
				c-1-0.8-2.6-1.2-4.7-1.2c-2,0-3.9,0.3-5.5,1c-1.6,0.7-3.2,1.4-4.7,2.3c-0.7-0.8-1.2-1.7-1.6-2.7c-0.4-1-0.6-1.7-0.6-2.2
				c0-0.7,0.4-1.3,1.1-1.9c0.7-0.6,1.7-1.2,3-1.7c1.3-0.5,2.8-0.9,4.4-1.2c1.7-0.3,3.4-0.5,5.3-0.5c2.6,0,4.7,0.3,6.5,0.8
				c1.8,0.5,3.2,1.3,4.4,2.4c1.1,1.1,1.9,2.5,2.4,4.1c0.5,1.6,0.7,3.6,0.7,5.7V55.7z M258.2,47.4c-0.3,0-0.7,0-1,0
				c-0.3,0-0.7,0-1,0.1c-1.2,0.1-2.4,0.2-3.5,0.4c-1.2,0.2-2.2,0.5-3.1,1c-0.9,0.5-1.6,1.1-2.2,1.9c-0.6,0.8-0.9,1.7-0.9,2.9
				c0,1.3,0.4,2.5,1.1,3.4c0.8,0.9,2,1.4,3.9,1.4c0.9,0,1.8-0.1,2.6-0.4c0.8-0.2,1.5-0.5,2.1-0.9c0.6-0.4,1.1-0.8,1.5-1.2
				c0.4-0.5,0.5-0.9,0.5-1.2V47.4z"/>
		</g>
	</g>
	<g>
		<path class="st0" d="M271.6,22.7h5.7v-10h-12.7v3.1C264.6,19.6,267.7,22.7,271.6,22.7z"/>
		<path class="st0" d="M287.3,28.4v-5.7h-10v12.7h3.1C284.2,35.4,287.3,32.3,287.3,28.4z"/>
		<path class="st0" d="M293,12.7h-5.7v10H300v-3.1C300,15.8,296.9,12.7,293,12.7z"/>
		<path class="st0" d="M277.3,7v5.7h10V0h-3.1C280.4,0,277.3,3.1,277.3,7z"/>
	</g>
</g>
</svg>
