<?xml version="1.0" encoding="utf-8"?>
<!-- Generator: Adobe Illustrator 23.0.0, SVG Export Plug-In . SVG Version: 6.00 Build 0)  -->
<svg version="1.1" id="Capa_1" xmlns="http://www.w3.org/2000/svg" xmlns:xlink="http://www.w3.org/1999/xlink" x="0px" y="0px"
	 viewBox="0 0 300 60" style="enable-background:new 0 0 300 60;" xml:space="preserve">
<style type="text/css">
	.st0{fill:#FFFFFF;}
</style>
<g>
	<g>
		<path class="st0" d="M274.8,20.6h4.6v-9.1h-11.5v2.2C267.8,17.5,271,20.6,274.8,20.6z"/>
		<path class="st0" d="M288.5,25.2v-4.6h-9.1v11.5h2.2C285.4,32.2,288.5,29,288.5,25.2z"/>
		<path class="st0" d="M293,11.5h-4.6v9.1H300v-2.2C300,14.6,296.9,11.5,293,11.5z"/>
		<path class="st0" d="M279.4,7v4.6h9.1V0h-2.2C282.5,0,279.4,3.1,279.4,7z"/>
	</g>
	<g>
		<path class="st0" d="M27.4,50.7c0,3.4,0.5,5.9,1.5,7.5c-0.8,0.3-1.5,0.5-2.2,0.7C26,58.9,25.3,59,24.6,59c-1.6,0-2.7-0.3-3.5-0.9
			c-0.8-0.6-1.3-1.5-1.5-2.6c-1,1-2.2,1.8-3.8,2.5c-1.6,0.7-3.5,1-5.7,1c-1.2,0-2.3-0.2-3.5-0.5c-1.2-0.3-2.2-0.9-3.2-1.6
			c-1-0.7-1.7-1.7-2.3-3C0.3,52.8,0,51.3,0,49.5c0-2.2,0.5-4,1.6-5.4c1.1-1.4,2.4-2.5,4-3.3c1.6-0.8,3.3-1.4,5.2-1.7
			c1.9-0.3,3.6-0.5,5.1-0.6c0.5,0,1-0.1,1.5-0.1c0.5,0,1,0,1.4,0v-1.2c0-1.7-0.4-2.9-1.3-3.6c-0.9-0.7-2.3-1.1-4.3-1.1
			c-1.9,0-3.5,0.3-5,0.9C6.8,34.3,5.4,35,4,35.7c-0.6-0.7-1.1-1.6-1.5-2.4c-0.4-0.9-0.6-1.6-0.6-2c0-0.6,0.3-1.2,1-1.8
			C3.6,29,4.6,28.5,5.7,28c1.2-0.5,2.5-0.8,4-1.1c1.5-0.3,3.1-0.4,4.8-0.4c2.3,0,4.3,0.2,6,0.7c1.6,0.5,3,1.2,4,2.2
			c1,1,1.7,2.2,2.2,3.7c0.4,1.5,0.7,3.2,0.7,5.2V50.7z M19,43.1c-0.3,0-0.6,0-0.9,0c-0.3,0-0.6,0-0.9,0.1c-1.1,0.1-2.2,0.2-3.2,0.4
			c-1.1,0.2-2,0.5-2.8,0.9c-0.8,0.4-1.5,1-2,1.7c-0.5,0.7-0.8,1.6-0.8,2.7c0,1.2,0.3,2.2,1,3.1c0.7,0.8,1.9,1.3,3.5,1.3
			c0.8,0,1.6-0.1,2.3-0.3c0.7-0.2,1.4-0.5,2-0.8c0.6-0.3,1-0.7,1.3-1.1s0.5-0.8,0.5-1.1V43.1z"/>
		<path class="st0" d="M60.9,32.3c0-1.1,0.2-2,0.5-2.6c0.3-0.7,0.8-1.2,1.4-1.6c0.6-0.4,1.2-0.6,1.9-0.7c0.7-0.1,1.4-0.2,2.1-0.2
			c0.7,0,1.4,0,2,0.1c0.7,0.1,1,0.1,1,0.2v26.1c0,1.1-0.1,2-0.4,2.7c-0.3,0.7-0.7,1.2-1.2,1.7c-0.5,0.4-1.1,0.7-1.8,0.8
			c-0.7,0.2-1.5,0.2-2.3,0.2c-0.7,0-1.3,0-2-0.1c-0.6,0-1-0.1-1.2-0.2V32.3z"/>
		<path class="st0" d="M129.9,50.7c0,3.4,0.5,5.9,1.5,7.5c-0.8,0.3-1.5,0.5-2.2,0.7c-0.7,0.1-1.4,0.2-2.1,0.2
			c-1.6,0-2.7-0.3-3.5-0.9c-0.8-0.6-1.3-1.5-1.5-2.6c-1,1-2.2,1.8-3.8,2.5c-1.6,0.7-3.5,1-5.7,1c-1.2,0-2.3-0.2-3.5-0.5
			c-1.2-0.3-2.2-0.9-3.2-1.6c-1-0.7-1.7-1.7-2.3-3c-0.6-1.2-0.9-2.7-0.9-4.5c0-2.2,0.5-4,1.6-5.4c1.1-1.4,2.4-2.5,4-3.3
			c1.6-0.8,3.3-1.4,5.2-1.7c1.9-0.3,3.6-0.5,5.1-0.6c0.5,0,1-0.1,1.5-0.1c0.5,0,1,0,1.4,0v-1.2c0-1.7-0.4-2.9-1.3-3.6
			c-0.9-0.7-2.3-1.1-4.3-1.1c-1.9,0-3.5,0.3-5,0.9c-1.5,0.6-2.9,1.3-4.3,2.1c-0.6-0.7-1.1-1.6-1.5-2.4c-0.4-0.9-0.6-1.6-0.6-2
			c0-0.6,0.3-1.2,1-1.8c0.7-0.6,1.6-1.1,2.8-1.5c1.2-0.5,2.5-0.8,4-1.1c1.5-0.3,3.1-0.4,4.8-0.4c2.3,0,4.3,0.2,6,0.7
			c1.6,0.5,3,1.2,4,2.2c1,1,1.7,2.2,2.2,3.7c0.4,1.5,0.7,3.2,0.7,5.2V50.7z M121.5,43.1c-0.3,0-0.6,0-0.9,0c-0.3,0-0.6,0-0.9,0.1
			c-1.1,0.1-2.2,0.2-3.2,0.4c-1.1,0.2-2,0.5-2.8,0.9c-0.8,0.4-1.5,1-2,1.7c-0.5,0.7-0.8,1.6-0.8,2.7c0,1.2,0.3,2.2,1,3.1
			c0.7,0.8,1.9,1.3,3.5,1.3c0.8,0,1.6-0.1,2.3-0.3c0.7-0.2,1.4-0.5,2-0.8c0.6-0.3,1-0.7,1.3-1.1s0.5-0.8,0.5-1.1V43.1z"/>
		<path class="st0" d="M59.4,28c-0.5-0.2-1.2-0.4-2-0.6c-0.8-0.2-1.6-0.3-2.5-0.3c-0.9,0-1.7,0.1-2.4,0.4c-0.6,0.3-1.2,0.7-1.6,1.2
			c-0.4,0.5-0.8,1.2-1.1,2c-0.3,0.8-0.6,1.6-0.9,2.6l-5.1,13.1l-4.8-12.9c-0.3-0.9-0.5-1.8-0.8-2.6c-0.3-0.8-0.7-1.4-1.1-2
			c-0.5-0.5-1-1-1.7-1.3c-0.7-0.3-1.6-0.5-2.6-0.5c-1.7,0-3.3,0.3-4.8,0.9l10.9,26.9c0.7,2.1,2.6,3.6,4.9,3.6c2.3,0,4.2-1.5,4.9-3.5
			L59.4,28z"/>
		<path class="st0" d="M103,28c-0.5-0.2-1.2-0.4-2-0.6c-0.8-0.2-1.6-0.3-2.5-0.3c-0.9,0-1.7,0.1-2.4,0.4c-0.6,0.3-1.2,0.7-1.6,1.2
			c-0.4,0.5-0.8,1.2-1.1,2c-0.3,0.8-0.6,1.6-0.9,2.6l-5.1,13.1l-4.8-12.9c-0.3-0.9-0.5-1.8-0.8-2.6c-0.3-0.8-0.7-1.4-1.1-2
			c-0.5-0.5-1-1-1.7-1.3c-0.7-0.3-1.6-0.5-2.6-0.5c-1.7,0-3.3,0.3-4.8,0.9l10.9,26.9c0.7,2.1,2.6,3.6,4.9,3.6c2.3,0,4.2-1.5,4.9-3.5
			L103,28z"/>
		<g id="XMLID_34_">
			<g>
				<path id="XMLID_109_" class="st0" d="M151.2,52.6c0.9,0,1.8-0.1,2.6-0.3c0.8-0.2,1.5-0.5,2.1-0.8c0.6-0.3,1.1-0.7,1.6-1
					c0.4-0.4,0.8-0.7,1-0.9c0.5,0.5,1,1.3,1.5,2.3c0.5,1,0.7,1.8,0.7,2.5c0,0.4-0.1,0.9-0.3,1.3c-0.2,0.4-0.5,0.8-1.1,1.3
					c-0.8,0.6-2,1.2-3.5,1.7c-1.5,0.5-3.4,0.8-5.8,0.8c-1.6,0-3.2-0.2-5-0.6c-1.8-0.4-3.5-1.3-5-2.5c-1.6-1.2-2.8-2.9-3.9-5
					c-1-2.1-1.6-4.9-1.6-8.4c0-3.3,0.5-6,1.6-8s2.4-3.7,4-4.9c1.6-1.2,3.3-2,5.1-2.5c1.8-0.5,3.4-0.7,4.8-0.7c1.8,0,3.4,0.2,4.9,0.6
					c1.5,0.4,2.8,0.9,3.8,1.6c0.8,0.5,1.4,1,1.7,1.5c0.3,0.5,0.5,1,0.5,1.7c0,0.6-0.2,1.3-0.6,2.2s-0.9,1.7-1.5,2.4
					c-0.7-0.7-1.7-1.5-3-2.2c-1.3-0.7-2.8-1.1-4.5-1.1c-2.8,0-4.9,0.9-6.1,2.6c-1.2,1.7-1.8,4-1.8,6.7c0,1.4,0.1,2.7,0.4,3.9
					c0.3,1.2,0.7,2.3,1.3,3.2c0.6,0.9,1.4,1.6,2.4,2.1C148.5,52.3,149.7,52.6,151.2,52.6z"/>
				<path id="XMLID_107_" class="st0" d="M182.9,27.5c0,0,0.4,0,1-0.1c0.6-0.1,1.3-0.1,1.9-0.1c0.7,0,1.5,0.1,2.2,0.3
					c0.7,0.2,1.3,0.5,1.9,0.8c0.5,0.4,1,0.9,1.3,1.6c0.3,0.7,0.5,1.5,0.5,2.6v25.6h-5.9c-1.1,0-1.8-0.3-2-0.9
					c-0.3-0.6-0.4-1.4-0.4-2.6c-0.7,1-1.9,1.9-3.4,2.8c-1.5,0.8-3.6,1.3-6.1,1.3c-3.1,0-5.3-0.6-6.8-1.8c-1.5-1.2-2.4-2.8-2.8-4.8
					c-0.2-1-0.4-2.1-0.4-3.2c-0.1-1.2-0.1-2.3-0.1-3.4v-18c0.3,0,0.6,0,1-0.1c0.3,0,0.6-0.1,0.9-0.1c0.3,0,0.6,0,0.9,0
					c1.7,0,3.1,0.4,4.3,1.1c1.1,0.7,1.7,2,1.7,3.9v12.8c0,0.9,0,1.8,0.1,2.7c0.1,0.8,0.2,1.5,0.5,2.1c0.3,0.6,0.7,1,1.4,1.4
					c0.6,0.3,1.5,0.5,2.6,0.5c1.6,0,3-0.3,4.1-1c1.1-0.7,1.7-1.5,1.7-2.5V27.5z"/>
				<path id="XMLID_105_" class="st0" d="M197.2,32.4c0-1.1,0.2-2,0.5-2.6c0.3-0.7,0.8-1.2,1.4-1.6c0.6-0.4,1.2-0.6,1.9-0.7
					c0.7-0.1,1.4-0.2,2.1-0.2c0.7,0,1.4,0,2,0.1s1,0.1,1,0.2v25.9c0,1.1-0.1,2-0.4,2.7c-0.3,0.7-0.7,1.2-1.2,1.7
					c-0.5,0.4-1.1,0.7-1.8,0.8c-0.7,0.2-1.5,0.2-2.3,0.2c-0.7,0-1.3,0-1.9-0.1c-0.6,0-1-0.1-1.2-0.2V32.4z"/>
				<path id="XMLID_102_" class="st0" d="M234,58.2c-0.7,0-1.3-0.2-1.7-0.7c-0.4-0.5-0.6-1.1-0.6-1.9c-0.6,0.7-1.6,1.5-3.1,2.3
					c-1.4,0.8-3.3,1.2-5.5,1.2c-1.6,0-3.1-0.3-4.6-0.8c-1.5-0.5-2.8-1.4-4-2.6c-1.2-1.2-2.1-2.8-2.8-4.8c-0.7-2-1-4.5-1-7.5
					c0-3,0.4-5.5,1.1-7.6c0.7-2.1,1.7-3.8,2.8-5.1c1.2-1.3,2.5-2.3,4.1-2.9c1.5-0.6,3.1-0.9,4.8-0.9c1.9,0,3.5,0.3,4.8,1
					c1.3,0.7,2.2,1.3,2.8,2V11.8c0,0,0.3-0.1,1-0.2c0.6-0.1,1.3-0.1,2-0.1c0.7,0,1.4,0.1,2.1,0.2c0.7,0.1,1.3,0.4,1.9,0.8
					c0.5,0.4,1,0.9,1.3,1.6c0.3,0.7,0.5,1.5,0.5,2.6v41.5H234z M219.7,42.8c0,1.5,0.1,2.9,0.3,4.1c0.2,1.2,0.6,2.3,1.1,3.1
					c0.5,0.9,1.2,1.5,2.1,2c0.9,0.5,2,0.7,3.3,0.7c1.3,0,2.3-0.3,3.2-0.8c0.9-0.5,1.3-1.3,1.3-2.2V35.3c-0.3-0.3-0.9-0.8-1.8-1.2
					c-0.8-0.5-1.8-0.7-2.9-0.7c-2.2,0-3.9,0.8-5,2.5C220.2,37.4,219.7,39.8,219.7,42.8z"/>
				<path id="XMLID_99_" class="st0" d="M270.7,50.7c0,3.4,0.5,5.9,1.5,7.4c-0.8,0.3-1.5,0.5-2.2,0.6c-0.7,0.1-1.4,0.2-2.1,0.2
					c-1.6,0-2.7-0.3-3.5-0.9c-0.8-0.6-1.3-1.5-1.5-2.6c-0.9,1-2.2,1.8-3.8,2.5c-1.6,0.7-3.5,1-5.7,1c-1.2,0-2.3-0.2-3.5-0.5
					c-1.2-0.3-2.2-0.9-3.2-1.6c-0.9-0.7-1.7-1.7-2.3-2.9c-0.6-1.2-0.9-2.7-0.9-4.5c0-2.2,0.5-4,1.6-5.4c1.1-1.4,2.4-2.5,4-3.3
					c1.6-0.8,3.3-1.3,5.2-1.6c1.9-0.3,3.6-0.5,5.1-0.6c0.5,0,1-0.1,1.5-0.1c0.5,0,1,0,1.4,0v-1.2c0-1.7-0.4-2.8-1.3-3.5
					c-0.9-0.7-2.3-1-4.3-1c-1.9,0-3.5,0.3-5,0.9c-1.4,0.6-2.9,1.3-4.2,2.1c-0.6-0.7-1.1-1.5-1.5-2.4c-0.4-0.9-0.5-1.5-0.5-2
					c0-0.6,0.3-1.2,1-1.7c0.7-0.6,1.6-1.1,2.8-1.5c1.2-0.5,2.5-0.8,4-1.1c1.5-0.3,3.1-0.4,4.8-0.4c2.3,0,4.3,0.2,5.9,0.7
					c1.6,0.5,2.9,1.2,3.9,2.2c1,1,1.7,2.2,2.2,3.7c0.4,1.5,0.6,3.2,0.6,5.2V50.7z M262.4,43.2c-0.3,0-0.6,0-0.9,0
					c-0.3,0-0.6,0-0.9,0.1c-1.1,0.1-2.1,0.2-3.2,0.4s-2,0.5-2.8,0.9c-0.8,0.4-1.5,1-2,1.7c-0.5,0.7-0.8,1.6-0.8,2.7
					c0,1.2,0.3,2.2,1,3.1c0.7,0.8,1.9,1.3,3.5,1.3c0.8,0,1.6-0.1,2.3-0.3c0.7-0.2,1.4-0.5,1.9-0.8c0.6-0.3,1-0.7,1.3-1.1
					c0.3-0.4,0.5-0.8,0.5-1.1V43.2z"/>
			</g>
		</g>
	</g>
</g>
</svg>
