<?xml version="1.0" encoding="utf-8"?>
<!-- Generator: Adobe Illustrator 23.0.3, SVG Export Plug-In . SVG Version: 6.00 Build 0)  -->
<svg version="1.1" id="Layer_1" xmlns="http://www.w3.org/2000/svg" xmlns:xlink="http://www.w3.org/1999/xlink" x="0px" y="0px"
	 viewBox="0 0 458 170" style="enable-background:new 0 0 458 170;" xml:space="preserve">
<style type="text/css">
	.st0{fill:#2B758E;}
	.st1{fill:#4898AE;}
</style>
<g>
	<g>
		<path class="st0" d="M78.5,145.9c0,9.8,1.4,17,4.3,21.5c-2.2,0.9-4.3,1.5-6.3,1.9c-1.9,0.4-4,0.6-6.1,0.6c-4.5,0-7.9-0.9-10.2-2.6
			c-2.3-1.7-3.8-4.2-4.4-7.5c-2.7,2.9-6.4,5.3-10.8,7.3c-4.5,2-10,3-16.5,3c-3.4,0-6.7-0.5-10.1-1.4c-3.4-0.9-6.4-2.5-9.2-4.6
			c-2.7-2.1-5-4.9-6.7-8.5c-1.7-3.5-2.6-7.9-2.6-13c0-6.3,1.5-11.5,4.6-15.5c3.1-4,6.9-7.1,11.5-9.4c4.6-2.3,9.6-3.9,15-4.7
			c5.4-0.9,10.3-1.4,14.8-1.7c1.5-0.1,3-0.2,4.4-0.2c1.4,0,2.8,0,4,0v-3.4c0-4.8-1.3-8.2-3.8-10.2c-2.6-2-6.7-3-12.4-3
			c-5.4,0-10.1,0.9-14.3,2.6c-4.2,1.7-8.3,3.7-12.2,6c-1.7-2.1-3.1-4.5-4.2-7c-1.1-2.6-1.6-4.5-1.6-5.7c0-1.7,1-3.4,2.9-5
			c1.9-1.6,4.6-3.1,7.9-4.4c3.4-1.3,7.2-2.4,11.6-3.2c4.4-0.8,9-1.2,13.8-1.2c6.7,0,12.4,0.7,17.1,2.1c4.7,1.4,8.5,3.5,11.4,6.4
			c2.9,2.9,5,6.5,6.3,10.8c1.2,4.3,1.9,9.3,1.9,15.1V145.9z M54.6,124.2c-0.9,0-1.7,0-2.6,0c-0.9,0-1.7,0.1-2.6,0.2
			c-3.1,0.3-6.2,0.6-9.3,1.1c-3.1,0.5-5.8,1.4-8.1,2.6c-2.4,1.2-4.3,2.9-5.8,4.9c-1.5,2-2.2,4.6-2.2,7.7c0,3.5,1,6.5,3,8.9
			c2,2.4,5.4,3.6,10.1,3.6c2.4,0,4.6-0.3,6.7-0.9c2.1-0.6,4-1.4,5.6-2.4c1.6-1,2.9-2.1,3.8-3.3c0.9-1.2,1.4-2.3,1.4-3.3V124.2z"/>
		<path class="st0" d="M174.9,93.2c0-3.1,0.5-5.6,1.5-7.6c1-1.9,2.3-3.4,3.9-4.5c1.6-1.1,3.4-1.8,5.4-2.2c2-0.4,4-0.6,6-0.6
			c2,0,3.9,0.1,5.8,0.3c1.9,0.2,2.8,0.3,2.8,0.5v74.8c0,3.1-0.4,5.7-1.2,7.7c-0.8,2-1.9,3.6-3.4,4.8c-1.4,1.2-3.1,2-5.1,2.4
			c-2,0.4-4.2,0.7-6.7,0.7c-2,0-3.9-0.1-5.6-0.2c-1.7-0.1-2.9-0.3-3.4-0.6V93.2z"/>
		<path class="st0" d="M372.8,145.9c0,9.8,1.4,17,4.3,21.5c-2.2,0.9-4.3,1.5-6.3,1.9c-1.9,0.4-4,0.6-6.1,0.6
			c-4.5,0-7.9-0.9-10.2-2.6c-2.3-1.7-3.8-4.2-4.4-7.5c-2.7,2.9-6.4,5.3-10.8,7.3c-4.5,2-10,3-16.5,3c-3.4,0-6.7-0.5-10.1-1.4
			c-3.4-0.9-6.4-2.5-9.2-4.6c-2.7-2.1-5-4.9-6.7-8.5c-1.7-3.5-2.6-7.9-2.6-13c0-6.3,1.5-11.5,4.6-15.5c3.1-4,6.9-7.1,11.5-9.4
			c4.6-2.3,9.6-3.9,15-4.7c5.4-0.9,10.3-1.4,14.8-1.7c1.5-0.1,3-0.2,4.4-0.2c1.4,0,2.8,0,4,0v-3.4c0-4.8-1.3-8.2-3.8-10.2
			c-2.6-2-6.7-3-12.4-3c-5.4,0-10.1,0.9-14.3,2.6c-4.2,1.7-8.3,3.7-12.2,6c-1.7-2.1-3.1-4.5-4.2-7c-1.1-2.6-1.6-4.5-1.6-5.7
			c0-1.7,1-3.4,2.9-5c1.9-1.6,4.6-3.1,7.9-4.4c3.4-1.3,7.2-2.4,11.6-3.2c4.4-0.8,9-1.2,13.8-1.2c6.7,0,12.4,0.7,17.1,2.1
			c4.7,1.4,8.5,3.5,11.4,6.4c2.9,2.9,5,6.5,6.3,10.8c1.2,4.3,1.9,9.3,1.9,15.1V145.9z M348.8,124.2c-0.9,0-1.7,0-2.6,0
			c-0.9,0-1.7,0.1-2.6,0.2c-3.1,0.3-6.2,0.6-9.3,1.1c-3.1,0.5-5.8,1.4-8.1,2.6c-2.4,1.2-4.3,2.9-5.8,4.9c-1.5,2-2.2,4.6-2.2,7.7
			c0,3.5,1,6.5,3,8.9c2,2.4,5.4,3.6,10.1,3.6c2.4,0,4.6-0.3,6.7-0.9c2.1-0.6,4-1.4,5.6-2.4c1.6-1,2.9-2.1,3.8-3.3
			c0.9-1.2,1.4-2.3,1.4-3.3V124.2z"/>
		<path class="st0" d="M170.6,80.9c-1.5-0.6-3.4-1.2-5.7-1.7c-2.3-0.5-4.7-0.8-7.2-0.8c-2.7,0-4.9,0.4-6.8,1.2
			c-1.8,0.8-3.4,1.9-4.7,3.5c-1.3,1.5-2.4,3.4-3.2,5.6c-0.9,2.2-1.7,4.6-2.5,7.3L126,133.6l-13.7-37.1c-0.8-2.7-1.6-5.2-2.4-7.4
			c-0.8-2.3-1.9-4.2-3.2-5.7c-1.3-1.5-3-2.8-5-3.7c-2-0.9-4.5-1.4-7.5-1.4c-4.8,0-9.4,0.8-13.7,2.5l31.2,77.2
			c1.9,6.1,7.5,10.4,14.1,10.4c6.5,0,11.9-4.2,13.9-10L170.6,80.9z"/>
		<path class="st0" d="M295.7,80.9c-1.5-0.6-3.4-1.2-5.7-1.7c-2.3-0.5-4.7-0.8-7.2-0.8c-2.7,0-4.9,0.4-6.8,1.2
			c-1.8,0.8-3.4,1.9-4.7,3.5c-1.3,1.5-2.4,3.4-3.2,5.6c-0.9,2.2-1.7,4.6-2.5,7.3L251,133.6l-13.7-37.1c-0.8-2.7-1.6-5.2-2.4-7.4
			c-0.8-2.3-1.9-4.2-3.2-5.7c-1.3-1.5-3-2.8-5-3.7c-2-0.9-4.5-1.4-7.5-1.4c-4.8,0-9.4,0.8-13.7,2.5l31.2,77.2
			c1.9,6.1,7.5,10.4,14.1,10.4c6.5,0,11.9-4.2,13.9-10L295.7,80.9z"/>
	</g>
	<g>
		<path class="st1" d="M225,44c-0.5-0.5-1.1-1-1.8-1.2c-0.7-0.3-1.5-0.4-2.4-0.4c-0.9,0-1.8,0.2-2.6,0.5c-0.8,0.3-1.5,0.8-2,1.4
			c-0.6,0.6-1,1.3-1.4,2.1c-0.3,0.8-0.5,1.7-0.5,2.6c0,1,0.2,1.8,0.5,2.6c0.3,0.8,0.8,1.5,1.3,2.1c0.6,0.6,1.2,1,2,1.4
			c0.8,0.3,1.6,0.5,2.5,0.5c1,0,1.9-0.2,2.7-0.6c0.8-0.4,1.4-0.9,1.9-1.6l4.1,2.8c-0.9,1.2-2.1,2.1-3.6,2.7
			c-1.4,0.6-2.9,0.9-4.5,0.9c-1.7,0-3.3-0.3-4.8-0.8c-1.5-0.5-2.7-1.2-3.8-2.2c-1.1-0.9-1.9-2.1-2.5-3.4c-0.6-1.3-0.9-2.8-0.9-4.5
			c0-1.6,0.3-3.1,0.9-4.5c0.6-1.3,1.4-2.5,2.5-3.4c1.1-0.9,2.3-1.7,3.8-2.2c1.5-0.5,3.1-0.8,4.8-0.8c0.6,0,1.3,0.1,2,0.2
			c0.7,0.1,1.3,0.3,2,0.5s1.3,0.5,1.9,0.9c0.6,0.4,1.2,0.9,1.6,1.4L225,44z"/>
		<path class="st1" d="M232.8,38.7h4.9V55h9.1v4.2h-14V38.7z"/>
		<path class="st1" d="M253.4,33h6.4l-5.4,4.2h-4.1L253.4,33z M250.9,38.7h4.9v20.5h-4.9V38.7z"/>
		<path class="st1" d="M260.7,38.7h6.7l9.5,14.2h0.1V38.7h4.9v20.5h-6.4l-9.7-14.6h-0.1v14.6h-4.9V38.7z"/>
		<path class="st1" d="M286.4,38.7h4.9v20.5h-4.9V38.7z"/>
		<path class="st1" d="M311.3,44c-0.5-0.5-1.1-1-1.8-1.2s-1.5-0.4-2.4-0.4s-1.8,0.2-2.6,0.5c-0.8,0.3-1.5,0.8-2,1.4
			c-0.6,0.6-1,1.3-1.4,2.1c-0.3,0.8-0.5,1.7-0.5,2.6c0,1,0.2,1.8,0.5,2.6c0.3,0.8,0.8,1.5,1.3,2.1s1.2,1,2,1.4
			c0.8,0.3,1.6,0.5,2.5,0.5c1,0,1.9-0.2,2.7-0.6c0.8-0.4,1.4-0.9,1.9-1.6l4.1,2.8c-0.9,1.2-2.1,2.1-3.6,2.7
			c-1.4,0.6-2.9,0.9-4.5,0.9c-1.7,0-3.3-0.3-4.8-0.8c-1.5-0.5-2.7-1.2-3.8-2.2c-1.1-0.9-1.9-2.1-2.5-3.4c-0.6-1.3-0.9-2.8-0.9-4.5
			c0-1.6,0.3-3.1,0.9-4.5c0.6-1.3,1.4-2.5,2.5-3.4c1.1-0.9,2.3-1.7,3.8-2.2c1.5-0.5,3.1-0.8,4.8-0.8c0.6,0,1.3,0.1,2,0.2
			s1.4,0.3,2,0.5c0.7,0.2,1.3,0.5,1.9,0.9c0.6,0.4,1.2,0.9,1.6,1.4L311.3,44z"/>
		<path class="st1" d="M326.3,38.7h4.1l9.7,20.5h-5.5l-1.9-4.3H324l-1.9,4.3h-5.4L326.3,38.7z M328.2,44.6l-2.7,6.4h5.4L328.2,44.6z
			"/>
	</g>
	<g>
		<path class="st0" d="M378.8,59.2h19.8V33h-33v13C365.7,53.3,371.5,59.2,378.8,59.2z"/>
		<path class="st0" d="M424.8,79V59.2h-26.2v33h13C418.9,92.1,424.8,86.3,424.8,79z"/>
		<path class="st1" d="M444.6,33h-19.8v26.2h33v-13C457.8,38.9,451.9,33,444.6,33z"/>
		<path class="st1" d="M398.6,13.2V33h26.2V0h-13C404.5,0,398.6,5.9,398.6,13.2z"/>
	</g>
</g>
</svg>
