<?xml version="1.0" encoding="utf-8"?>
<!-- Generator: Adobe Illustrator 23.0.0, SVG Export Plug-In . SVG Version: 6.00 Build 0)  -->
<svg version="1.1" id="Modo_de_aislamiento" xmlns="http://www.w3.org/2000/svg" xmlns:xlink="http://www.w3.org/1999/xlink"
	 x="0px" y="0px" viewBox="0 0 300 300" style="enable-background:new 0 0 300 300;" xml:space="preserve">
<style type="text/css">
	.st0{fill:#FFFFFF;}
</style>
<path class="st0" d="M275.1,227.3v-17.9c0-27.6-22.4-50-50-50s-50,22.4-50,50v34.4c0,17.2-14,31.3-31.3,31.3
	c-17.2,0-31.2-14-31.2-31.3v-43.6c10.6-3.3,15.2-16.9,17.2-27.3c55-12.4,70.3-83.5,70.3-122.9c0-32.7-30.4-40.9-54.3-43
	c-3.4-4.2-8.6-7-14.5-7c-10.4,0-18.7,8.4-18.7,18.8c0,10.3,8.4,18.7,18.7,18.7c5.1,0,9.8-2.1,13.2-5.4c30.5,2.8,30.6,12.3,30.6,17.9
	c0,25-9.2,85.9-48.5,97.8c-3.7-4-8.9-6.1-14-6.1h-25c-5.1,0-10.3,2.1-14,6.1C34.2,135.9,25,75.1,25,50c0-5.6,0.1-15.1,30.6-17.9
	c3.4,3.4,8,5.4,13.2,5.4c10.4,0,18.8-8.4,18.8-18.7C87.5,8.4,79.1,0,68.7,0c-5.9,0-11,2.8-14.5,7C30.4,9.1,0,17.3,0,50
	c0,39.4,15.3,110.5,70.3,122.9c2,10.4,6.7,24,17.2,27.3v43.6c0,31,25.2,56.2,56.2,56.2c30,0,54.3-23.6,55.9-53.1h0.3v-37.5
	c0-13.8,11.2-25,25-25c13.8,0,25,11.2,25,25v17.9c-14.5,5.2-25,18.9-25,35.2c0,20.7,16.8,37.5,37.5,37.5s37.5-16.8,37.5-37.5
	C300.1,246.2,289.6,232.5,275.1,227.3z M262.6,275c-6.9,0-12.5-5.6-12.5-12.5c0-6.9,5.6-12.5,12.5-12.5c6.9,0,12.5,5.6,12.5,12.5
	C275.1,269.4,269.5,275,262.6,275z"/>
</svg>
