<?xml version="1.0" encoding="utf-8"?>
<!-- Generator: Adobe Illustrator 23.0.0, SVG Export Plug-In . SVG Version: 6.00 Build 0)  -->
<svg version="1.1" id="Modo_de_aislamiento" xmlns="http://www.w3.org/2000/svg" xmlns:xlink="http://www.w3.org/1999/xlink"
	 x="0px" y="0px" viewBox="0 0 300 300" style="enable-background:new 0 0 300 300;" xml:space="preserve">
<style type="text/css">
	.st0{fill:#FFFFFF;}
</style>
<g id="_x31_2">
	<g>
		<g>
			<path class="st0" d="M290,245.7l-0.1,3.4v2.4c0,1-0.1,2.1-0.1,3.2c0.1,4-2.6,11.2-7.1,13.8c-0.6,0.3-1.2,0.7-1.7,1.1
				c-4.9,3.1-10.2,6.3-15.8,8.8c-17.6,7.8-38.1,13.4-64.5,17.6c-8.8,1.4-17.1,2.4-25.5,3.1c-7.9,0.7-15.8,1-24,1h-2.6
				c-8.2,0-16.1-0.3-24-1c-8.3-0.7-16.6-1.7-25.5-3.1c-26.4-4.2-46.9-9.8-64.5-17.6c-5.5-2.5-10.9-5.7-15.7-8.7
				c-0.6-0.4-1.2-0.8-1.7-1.1c-4.4-2.6-7.1-9.8-7.1-13.9c0-2-0.1-4.1-0.1-5.7l-0.2-3.6c-0.2-9.3-0.5-18.9,3.1-26.9
				c4.2-9.3,13-16.4,21.6-22.8c4.1-3.1,8.6-6.1,13.5-9c1.1,2.4,2.4,5,4.1,8.2c0.8,1.5,1.6,3,2.4,4.5c-11.4,10.1-15.6,29.5-10.6,48.8
				c0.4,1.5,0.8,3.2,1.4,4.8l0.7,2.3c0.7,2.1,1.3,4.2,2.4,6.4c2.9,5.9,6.6,8.9,10.9,8.9c0.8,0,1.6-0.1,2.5-0.3l0.4-0.1
				c0.8-0.2,1.3-0.3,2-0.5c2.3,1,5.1,1.1,7.4,0.3c3.7-1.2,6.3-4.4,7-8.1l0.4-2.3H79c-0.2-5.7-4.8-10.3-10.5-10.3
				c-3.3,0-6.2,1.5-8.2,3.8c-0.3-0.7-0.5-1.5-0.8-2.4c-0.1-0.3-0.2-0.7-0.3-1c-0.1-0.4-0.2-0.8-0.4-1.1c-6.2-18.3-2-36.9,9.2-41.2
				c12.2-3.3,26.5,9,32.7,27.2c0.2,0.6,0.5,1.2,0.8,2.1l0.1,0.4c0.1,0.3,0.2,0.6,0.3,1c-0.9,0.1-1.8,0.3-2.6,0.6
				c-2.6,0.9-4.8,2.8-6,5.3c-1.2,2.5-1.4,5.4-0.5,8c1.4,4.3,5.4,7.1,9.9,7.1c1.2,0,2.3-0.2,3.4-0.6c2.6-0.9,4.7-2.7,6-5.1
				c2.6-1.3,5.3-4,5.3-9.8c0-1.5-0.2-3.1-0.5-4.8c-0.5-2.4-1.2-4.5-1.9-6.5l-0.2-0.5c-0.2-0.6-0.4-1.2-0.6-1.9
				c-7.4-21.9-24.8-37.1-42.1-37.1c-1,0-2,0.1-3.3,0.2c-1.3-2.4-2.5-4.6-3.5-6.7c-1.2-2.4-2.4-4.9-3.5-7.1l0.2-0.1
				c1.2-0.6,2.4-1.2,3.6-1.9l6-3.1c2.7-1.4,5.4-2.8,8.2-4.1l0.1-0.1c4.7-2.2,8.7-3.7,12.5-4.9c0.2-0.1,0.5-0.2,0.7-0.3l0.4,0.6
				c1,1.5,1.9,2.9,2.9,4.3c3.8,5.6,7,10.1,10,14.2c6,8.3,12,16,17.1,22.5c1.4,1.8,2.9,3.6,4.3,5.5c1.5,1.8,2.9,3.7,4.4,5.5
				c0.3,0.4,0.6,0.8,1,1.1c0.3,0.3,0.6,0.7,0.8,1l2.7,3.4l0.8-4.3c1.7-9.1,4-21.5,4.2-23.5l0.1-1.5c0-0.2,0-0.4-0.1-0.5l-0.2-1.1
				c-0.2-0.5-0.5-1-0.8-1.6l-1.9-2.9c-1-1.5-2-3.1-2.9-4.6c-0.1-0.1-0.1-0.2-0.1-0.3l0.3-0.9c0.4-1.2,0.8-2.5,1.3-3.8l0.6-1.7
				c0.6-1.7,1.2-3.4,1.8-5.1c0.1-0.1,0.2-0.1,0.2-0.1c0.6-0.2,4.1-0.5,9.9-0.5c6.1,0,9.7,0.3,10.3,0.5l0.3,0.1
				c0.4,1.3,0.8,2.5,1.3,3.8l1.4,3.9c0.4,1.3,0.9,2.6,1.3,3.6c0,0.1,0,0.3,0,0.4c-1,1.6-2,3.1-3,4.7l-1.9,3c-0.3,0.5-0.6,1-0.7,1.5
				l-0.2,0.5c-0.1,0.4-0.1,0.8-0.1,1l0.1,1.6c0.2,1.9,2.4,13.9,4.1,23l0.8,4.5l2.7-3.7c0.4-0.5,0.8-1.1,1.3-1.6
				c1.6-2.1,3.3-4.2,4.9-6.2l4.7-5.9c5.2-6.7,10.8-13.9,16.1-21.3c3.7-5.1,7-9.8,10.2-14.4c1.1-1.6,2.1-3.1,3.2-4.8
				c0.3,0.1,0.6,0.2,0.9,0.3c3.8,1.1,7.7,2.7,12.4,4.8l0.2,0.1c2.7,1.3,5.5,2.6,8.1,4l6.1,3.1c3,1.6,6.2,3.3,9.5,5
				c-0.7,3.1-1.6,6.1-2.4,8.9c-2.6,8.1-5.9,15.6-9.8,22.3c-3.1-1.2-6.5-1.9-9.9-1.9c-14.7,0-26.6,11.9-26.6,26.6
				c0,13.9,10.8,25.5,24.6,26.5c0.6,0.1,1.3,0.1,2,0.1c6.6,0,12.8-2.4,17.6-6.7c5.7-5,8.9-12.3,8.9-19.8c0-5.7-1.9-11.3-5.3-15.9
				c4.2-7,7.8-14.6,10.7-22.7c1-2.9,2-6,2.9-9.6c2.7,1.7,5.7,3.8,8.5,5.9c8.7,6.4,17.5,13.5,21.6,22.7
				C290.6,226.5,290.3,236.2,290,245.7z"/>
		</g>
		<g>
			<path class="st0" d="M234.2,238c0,6.8-5.6,12.3-12.4,12.3s-12.3-5.5-12.3-12.3c0-6.8,5.5-12.4,12.3-12.4c1.4,0,2.9,0.3,4.2,0.7
				c2.9,1.1,5.2,3.1,6.7,5.8C233.7,234,234.2,236,234.2,238z"/>
		</g>
	</g>
</g>
<path class="st0" d="M211.7,76.3c-4.5,40.3-32.7,70.3-63.2,70.4c-30.4-0.1-58.6-30.1-63.2-70.4C80.9,36.1,109.1,0,148.6,0
	C188,0,216.2,36.1,211.7,76.3z"/>
</svg>
