<?xml version="1.0" encoding="utf-8"?>
<!-- Generator: Adobe Illustrator 23.0.0, SVG Export Plug-In . SVG Version: 6.00 Build 0)  -->
<svg version="1.1" id="Modo_de_aislamiento" xmlns="http://www.w3.org/2000/svg" xmlns:xlink="http://www.w3.org/1999/xlink"
	 x="0px" y="0px" viewBox="0 0 300 300" style="enable-background:new 0 0 300 300;" xml:space="preserve">
<style type="text/css">
	.st0{fill:#FFFFFF;}
</style>
<path class="st0" d="M277.1,260.2h-33.4c-1.3,0-2.1-0.8-2.1-2.1V43.9c0-1.3,0.9-2.1,2.1-2.1h33.4c1.3,0,2.1,0.9,2.1,2.1v214.2
	C279.3,259.4,278.4,260.2,277.1,260.2"/>
<path class="st0" d="M277.1,0h-33.4c-1.3,0-2.1,0.8-2.1,2.1v22c0,1.3,0.9,2.1,2.1,2.1h33.4c1.3,0,2.1-0.9,2.1-2.1v-22
	C279.3,0.8,278.4,0,277.1,0"/>
<path class="st0" d="M275.9,270.3H245c-1.3,0-2.5,1.7-1.7,3l15.2,25.8c0.9,1.3,2.5,1.3,3.4,0l15.2-25.8
	C278,272,277.1,270.3,275.9,270.3"/>
<path class="st0" d="M293.2,98L293.2,98c-3,0-5.5-2.5-5.5-5.5V22c0-3,2.5-5.5,5.5-5.5c3,0,5.5,2.5,5.5,5.5v71
	C298.7,95.9,296.1,98,293.2,98"/>
<path class="st0" d="M204.1,67.2h-47.7c-0.8,0-1.7-0.8-1.7-1.7V17.3c0-1.7,1.7-2.1,3-1.3l48.1,48.2
	C206.6,65.5,205.8,67.2,204.1,67.2 M195.6,130.5h-166c-4.6,0-8.5-3.8-8.5-8.5s3.8-8.5,8.5-8.5h166c4.6,0,8.5,3.8,8.5,8.5
	S200.3,130.5,195.6,130.5 M195.6,195.6h-166c-4.6,0-8.5-3.8-8.5-8.5c0-4.6,3.8-8.5,8.5-8.5h166c4.6,0,8.5,3.8,8.5,8.5
	C204.1,191.8,200.3,195.6,195.6,195.6 M195.6,260.6h-166c-4.6,0-8.5-3.8-8.5-8.5s3.8-8.5,8.5-8.5h166c4.6,0,8.5,3.8,8.5,8.5
	S200.3,260.6,195.6,260.6 M29.6,48.6h89.1c4.6,0,8.5,3.8,8.5,8.4c0,4.6-3.8,8.5-8.5,8.5H29.6c-4.6,0-8.5-3.8-8.5-8.5
	C21.2,52.4,25,48.6,29.6,48.6 M221.8,51.5L172.4,2.1C171.1,0.9,169,0,166.9,0H5.5C3.4,0,1.3,1.7,1.3,4.2v291.4
	c0,2.1,1.7,4.2,4.2,4.2h214.2c2.1,0,4.2-1.7,4.2-4.2V57C223.9,54.9,223.1,53.2,221.8,51.5"/>
</svg>
