<?xml version="1.0" encoding="utf-8"?>
<!-- Generator: Adobe Illustrator 23.0.0, SVG Export Plug-In . SVG Version: 6.00 Build 0)  -->
<svg version="1.1" id="Capa_1" xmlns="http://www.w3.org/2000/svg" xmlns:xlink="http://www.w3.org/1999/xlink" x="0px" y="0px"
	 viewBox="0 0 300 300" style="enable-background:new 0 0 300 300;" xml:space="preserve">
<style type="text/css">
	.st0{fill:#FFFFFF;}
</style>
<g>
	<rect x="126.7" y="112.3" class="st0" width="46.6" height="46.5"/>
	<path class="st0" d="M275.8,174.6l-5.4-148.3l-43.9-9.6l-23.4-5.1L150,0L51.3,21.5l-21.7,4.7L28.9,45l-1.2,33.7l-0.9,23.4
		l-2.6,72.4c-1,26.3,9.1,51,27.4,69.1c6.7,6.6,14.5,12.4,23.3,17l12.2,6.4L150,300l75.2-39.4C257.7,243.4,277.1,210.5,275.8,174.6z
		 M232,158.9h-58.7v35.4c0,12.9-10.4,23.3-23.3,23.3h-23.2v-58.7H91.3c-12.9,0-23.3-10.4-23.3-23.3v-23.2h58.7V76.9
		c0-12.9,10.4-23.3,23.3-23.3h23.2v58.7h35.4c12.9,0,23.3,10.4,23.3,23.3V158.9z"/>
</g>
</svg>
