<?xml version="1.0" encoding="utf-8"?>
<!-- Generator: Adobe Illustrator 23.0.0, SVG Export Plug-In . SVG Version: 6.00 Build 0)  -->
<svg version="1.1" id="Capa_1" xmlns="http://www.w3.org/2000/svg" xmlns:xlink="http://www.w3.org/1999/xlink" x="0px" y="0px"
	 viewBox="0 0 300 300" style="enable-background:new 0 0 300 300;" xml:space="preserve">
<style type="text/css">
	.st0{fill:#FFFFFF;}
</style>
<g>
	<path class="st0" d="M99.1,155c-1.5-1.9-3.5-3.2-6-4.1c-2.5-0.9-4.9-1.3-7.1-1.3c-1.3,0-2.7,0.2-4.1,0.5c-1.4,0.3-2.7,0.8-3.9,1.4
		c-1.2,0.7-2.2,1.5-3,2.6c-0.8,1.1-1.2,2.4-1.2,3.9c0,2.5,0.9,4.4,2.8,5.7s4.2,2.4,7,3.4c2.8,0.9,5.8,1.9,9.1,2.8
		c3.2,0.9,6.3,2.2,9.1,3.9c2.8,1.7,5.2,4,7,6.8c1.9,2.9,2.8,6.7,2.8,11.5c0,4.6-0.9,8.5-2.5,11.9c-1.7,3.4-4,6.2-6.9,8.5
		c-2.9,2.2-6.3,3.9-10.1,5c-3.8,1.1-7.9,1.6-12.1,1.6c-5.3,0-10.3-0.8-14.8-2.4c-4.6-1.6-8.8-4.2-12.7-7.9l12.9-14.1
		c1.9,2.5,4.2,4.4,7,5.7c2.8,1.4,5.7,2,8.7,2c1.5,0,3-0.2,4.5-0.5c1.5-0.3,2.9-0.9,4.1-1.6c1.2-0.7,2.2-1.6,2.9-2.7
		c0.7-1.1,1.1-2.4,1.1-3.8c0-2.5-0.9-4.4-2.8-5.8c-1.9-1.4-4.3-2.6-7.1-3.7c-2.9-1-5.9-2-9.3-3c-3.3-1-6.4-2.4-9.3-4.1
		c-2.9-1.7-5.2-3.9-7.1-6.7c-1.9-2.8-2.8-6.4-2.8-11c0-4.4,0.9-8.3,2.6-11.6c1.7-3.3,4.1-6.1,6.9-8.3c2.9-2.2,6.2-3.9,10-5
		c3.8-1.1,7.7-1.7,11.7-1.7c4.6,0,9.1,0.7,13.4,2c4.3,1.3,8.2,3.5,11.7,6.6L99.1,155z"/>
	<path class="st0" d="M150.9,128.8l13.2,4.1l-34.7,90.2l-13.1-4.1L150.9,128.8z"/>
</g>
<path class="st0" d="M207.8,71.7c-50.9,0-92.2-7.2-92.2-16v16.4c-3.3-0.3-6.7-0.5-10.1-0.5C47.4,71.7,0,119,0,177.2
	c0,58.2,47.4,105.6,105.6,105.6c29.3,0,55.8-12,74.9-31.3c8.7,0.5,17.8,0.8,27.3,0.8c50.9,0,92.2-7.2,92.2-16V205
	c0,8.8-41.3,16-92.2,16c-2.1,0-4.2-0.1-6.2-0.1c2.7-5.9,4.8-12,6.4-18.3c50.8,0,92-7.2,92-16v-31.3c0,8.7-39.7,15.7-89.2,16
	c-0.4-6.3-1.2-12.5-2.7-18.4c50.7,0,91.8-7.2,91.8-16v-31.3c0,8.8-41.3,16-92.2,16c-4.4,0-8.7-0.1-12.9-0.2
	c-4.4-6.9-9.4-13.4-15.2-19.1c8.9,0.5,18.3,0.8,28.1,0.8c50.9,0,92.2-7.2,92.2-16V55.7C300,64.6,258.7,71.7,207.8,71.7z
	 M191.1,177.2c0,47.1-38.4,85.5-85.5,85.5c-47.2,0-85.5-38.4-85.5-85.5c0-47.1,38.4-85.5,85.5-85.5
	C152.7,91.7,191.1,130.1,191.1,177.2z M207.8,17.2c-50.9,0-92.2,7.2-92.2,16v2.5c0,8.8,41.3,16,92.2,16s92.2-7.2,92.2-16v-2.5
	C300,24.4,258.7,17.2,207.8,17.2z"/>
</svg>
