<?xml version="1.0" encoding="utf-8"?>
<!-- Generator: Adobe Illustrator 23.0.0, SVG Export Plug-In . SVG Version: 6.00 Build 0)  -->
<svg version="1.1" id="Capa_1" xmlns="http://www.w3.org/2000/svg" xmlns:xlink="http://www.w3.org/1999/xlink" x="0px" y="0px"
	 viewBox="0 0 300 300" style="enable-background:new 0 0 300 300;" xml:space="preserve">
<style type="text/css">
	.st0{fill:#FFFFFF;}
</style>
<path class="st0" d="M140.1,191l0.4,0l10.7-10.7L129.5,158h64c2.3,0,4.1-1.8,4.1-4.1v-7.8c0-2.3-1.8-4.1-4.1-4.1h-62.2l20.2-21.9
	L140.4,109l-0.3,0l-37.8,42.2L140.1,191z"/>
<path class="st0" d="M150,8c37.9,0,73.6,14.8,100.4,41.6S292,112.1,292,150s-14.8,73.6-41.6,100.4S187.9,292,150,292
	s-73.6-14.8-100.4-41.6S8,187.9,8,150S22.8,76.4,49.6,49.6S112.1,8,150,8 M150,0C67.2,0,0,67.2,0,150s67.2,150,150,150
	s150-67.2,150-150S232.8,0,150,0L150,0z"/>
</svg>
