<?xml version="1.0" encoding="utf-8"?>
<!-- Generator: Adobe Illustrator 23.0.0, SVG Export Plug-In . SVG Version: 6.00 Build 0)  -->
<svg version="1.1" id="Capa_1" xmlns="http://www.w3.org/2000/svg" xmlns:xlink="http://www.w3.org/1999/xlink" x="0px" y="0px"
	 viewBox="0 0 300 300" style="enable-background:new 0 0 300 300;" xml:space="preserve">
<style type="text/css">
	.st0{fill:#FFFFFF;}
</style>
<g>
	<path class="st0" d="M243.8,143.9L300,87.8l-56.2-56.2L225,50.8l23.5,23.5h-62.2l-54.1,56.2L78.4,74.3H8.9c-4.9,0-8.9,4-8.9,8.9
		v9.1c0,4.9,4,8.9,8.9,8.9h58l46.7,48.8l-46.7,48.8h-58c-4.9,0-8.9,4-8.9,8.9v9.1c0,4.9,4,8.9,8.9,8.9h69.4l53.8-56.2l54.1,56.2
		h62.2L225,249.2l18.8,19.2l56.2-56.2l-56.2-56.2L225,175.2l23.5,23.5h-50.8L151,150l46.7-48.8h50.8L225,124.8L243.8,143.9z"/>
</g>
</svg>
