<?xml version="1.0" encoding="utf-8"?>
<!-- Generator: Adobe Illustrator 23.0.0, SVG Export Plug-In . SVG Version: 6.00 Build 0)  -->
<svg version="1.1" id="Capa_2" xmlns="http://www.w3.org/2000/svg" xmlns:xlink="http://www.w3.org/1999/xlink" x="0px" y="0px"
	 viewBox="0 0 100 100" style="enable-background:new 0 0 100 100;" xml:space="preserve">
<style type="text/css">
	.st0{fill:#20668B;}
</style>
<path class="st0" d="M98,5.8c-1.3-1.3-3.1-1.9-4.8-1.9l0,0C91.5,4,89.9,4.8,88.8,6c-6.3,6.7-16.1,17.3-25.5,27.6
	c-7.5,8.2-15.3,16.7-21.2,23L27.9,44c-1.3-1.2-3-1.8-4.7-1.7c-1.7,0.1-3.3,0.9-4.5,2.2c-2.4,2.7-2.1,6.9,0.6,9.3l18.9,16.9
	c1.2,1.1,2.8,1.7,4.3,1.7c1.7,0,3.4-0.7,4.7-2.1c6.2-6.6,16.1-17.4,25.7-27.9c9.5-10.3,19.2-21,25.3-27.5
	C100.7,12.5,100.6,8.3,98,5.8z"/>
<g>
	<path class="st0" d="M49.8,99.8C22.3,99.8,0,77.5,0,50S22.3,0.2,49.8,0.2c8.8,0,17.5,2.3,25.1,6.8c1.7,1,2.3,3.2,1.3,4.9
		c-1,1.7-3.2,2.3-4.9,1.3c-6.5-3.8-13.9-5.8-21.4-5.8C26.3,7.4,7.2,26.5,7.2,50c0,23.5,19.1,42.6,42.6,42.6
		c23.5,0,42.6-19.1,42.6-42.6c0-5.8-1.1-11.3-3.4-16.6c-0.8-1.8,0.1-4,1.9-4.7c1.8-0.8,4,0.1,4.7,1.9c2.6,6.1,3.9,12.7,3.9,19.4
		C99.6,77.5,77.3,99.8,49.8,99.8z"/>
</g>
</svg>
