<?xml version="1.0" encoding="utf-8"?>
<!-- Generator: Adobe Illustrator 23.0.0, SVG Export Plug-In . SVG Version: 6.00 Build 0)  -->
<svg version="1.1" id="Capa_1" xmlns="http://www.w3.org/2000/svg" xmlns:xlink="http://www.w3.org/1999/xlink" x="0px" y="0px"
	 viewBox="0 0 100 100" style="enable-background:new 0 0 100 100;" xml:space="preserve">
<style type="text/css">
	.st0{fill:#519DB9;}
</style>
<g>
	<path class="st0" d="M61.2,13.9c0-0.8-0.6-1.4-1.4-1.4H59c-0.1,0.7-0.6,1.3-1.2,1.3H41.5c-0.6,0-1.1-0.6-1.2-1.3h-0.8
		c-0.8,0-1.4,0.6-1.4,1.4v6.3h23.1V13.9z"/>
	<rect x="44.1" y="49.1" class="st0" width="11.1" height="11.1"/>
	<path class="st0" d="M91.2,20.2H64.9v-8.6c0-1-0.8-1.9-1.9-1.9h-4V8.6C59,7.8,58.5,7,57.8,7H41.5c-0.7,0-1.2,0.7-1.2,1.6v1.1h-4
		c-1,0-1.9,0.8-1.9,1.9v8.6H8.1c-3.2,0-5.8,2.6-5.8,5.8v58.9c0,3.2,2.6,5.8,5.8,5.8h2.7v2.6H26v-2.6H67v2.6h15.3v-2.6h9
		c3.2,0,5.8-2.6,5.8-5.8V26C97,22.8,94.4,20.2,91.2,20.2z M38.1,13.9c0-0.8,0.6-1.4,1.4-1.4h0.8c0.1,0.7,0.6,1.3,1.2,1.3h16.3
		c0.6,0,1.1-0.6,1.2-1.3h0.8c0.8,0,1.4,0.6,1.4,1.4v6.3H38.1V13.9z M69.1,60.1H55.2v8.4c0,3.1-2.5,5.5-5.5,5.5h-5.5V60.1h-8.4
		c-3.1,0-5.5-2.5-5.5-5.5v-5.5h13.9v-8.4c0-3.1,2.5-5.5,5.5-5.5h5.5v13.9h8.4c3.1,0,5.5,2.5,5.5,5.5V60.1z"/>
</g>
</svg>
