<?xml version="1.0" encoding="utf-8"?>
<!-- Generator: Adobe Illustrator 23.0.0, SVG Export Plug-In . SVG Version: 6.00 Build 0)  -->
<svg version="1.1" id="Capa_1" xmlns="http://www.w3.org/2000/svg" xmlns:xlink="http://www.w3.org/1999/xlink" x="0px" y="0px"
	 viewBox="0 0 300 300" style="enable-background:new 0 0 300 300;" xml:space="preserve">
<style type="text/css">
	.st0{fill:#FFFFFF;}
</style>
<path class="st0" d="M262.3,22.9v-7.9c0-7.8-6.3-14.1-14.1-14.1h-8.4c-7.8,0-14.1,6.3-14.1,14.1v7h-58v-7c0-7.8-6.3-14.1-14.1-14.1
	h-8.4C137.3,1,131,7.3,131,15.1v7H73v-7C73,7.3,66.7,1,58.9,1h-8.4c-7.8,0-14.1,6.3-14.1,14.1v8.2c-14.6,3.9-24.8,17-24.8,32.4
	v209.8c0,18.5,15,33.5,33.5,33.5h209.8c18.5,0,33.5-15,33.5-33.5V55.7C288.4,39.8,277.4,26.3,262.3,22.9z M254.9,283.5H45.1
	c-9.9,0-18-8.1-18-18V105h245.9v160.4C272.9,275.4,264.8,283.5,254.9,283.5z M50.5,58.7h8.4c7.8,0,14.1-6.3,14.1-14.1v-7h58v7
	c0,7.8,6.3,14.1,14.1,14.1h8.4c7.8,0,14.1-6.3,14.1-14.1v-7h58v7c0,7.8,6.3,14.1,14.1,14.1h8.4c7.8,0,14.1-6.3,14.1-14.1v-5.4
	c6.4,2.8,10.7,9.2,10.7,16.5v33.8H27.1V55.7c0-6.8,3.7-12.7,9.3-15.8v4.8C36.4,52.4,42.7,58.7,50.5,58.7z M51.9,43.2V16.5h5.6v26.7
	H51.9z M146.5,43.2V16.5h5.6v26.7H146.5z M241.2,43.2V16.5h5.6v26.7H241.2z"/>
<rect x="53.6" y="125" class="st0" width="35.7" height="35.7"/>
<rect x="105.5" y="125" class="st0" width="35.7" height="35.7"/>
<rect x="157.4" y="125" class="st0" width="35.7" height="35.7"/>
<rect x="53.6" y="177.8" class="st0" width="35.7" height="35.7"/>
<rect x="105.5" y="177.8" class="st0" width="35.7" height="35.7"/>
<rect x="157.4" y="177.8" class="st0" width="35.7" height="35.7"/>
<rect x="157.4" y="230.7" class="st0" width="35.7" height="35.7"/>
<rect x="209.3" y="125" class="st0" width="35.7" height="35.7"/>
<rect x="209.3" y="177.8" class="st0" width="35.7" height="35.7"/>
<rect x="209.3" y="230.7" class="st0" width="35.7" height="35.7"/>
<rect x="53.6" y="230.7" class="st0" width="35.7" height="35.7"/>
<rect x="105.5" y="230.7" class="st0" width="35.7" height="35.7"/>
</svg>
