<?xml version="1.0" encoding="utf-8"?>
<!-- Generator: Adobe Illustrator 23.0.0, SVG Export Plug-In . SVG Version: 6.00 Build 0)  -->
<svg version="1.1" id="Capa_1" xmlns="http://www.w3.org/2000/svg" xmlns:xlink="http://www.w3.org/1999/xlink" x="0px" y="0px"
	 viewBox="0 0 300 300" style="enable-background:new 0 0 300 300;" xml:space="preserve">
<style type="text/css">
	.st0{fill:#FFFFFF;}
</style>
<path class="st0" d="M219.3,81.7c-4.8,42.8-34.8,80.4-67.1,80.5c-32.3-0.1-62.3-37.6-67.1-80.5c-4.8-42.7,25.2-81.1,67.1-81.1
	C194.1,0.5,224.1,38.9,219.3,81.7z"/>
<g id="_x31_2_1_">
	<g>
		<g>
			<path class="st0" d="M121.9,200c-5.4-6.9-11.8-15.1-18.2-23.9c-3.2-4.4-6.6-9.2-10.7-15.1c-1.1-1.5-2.1-3.1-3.1-4.6l-0.4-0.6
				c-0.3,0.1-0.5,0.2-0.8,0.3c-4.1,1.2-8.3,2.9-13.3,5.2l-0.1,0.1c-3,1.4-5.9,2.9-8.7,4.3l-6.4,3.3c-1.3,0.7-2.6,1.3-3.8,2l-0.2,0.1
				c1.1,2.4,2.4,5,3.7,7.5c1.1,2.2,2.3,4.5,3.7,7.1c1.3-0.1,2.4-0.2,3.5-0.2c18.4,0,36.8,16.3,44.7,39.5c0.2,0.7,0.4,1.4,0.7,2.1
				l0.2,0.5c0.8,2.1,1.5,4.3,2.1,6.9c0.4,1.9,0.5,3.6,0.5,5.1c0,6.2-2.9,9.1-5.6,10.4c-1.3,2.6-3.5,4.5-6.3,5.4
				c-1.2,0.4-2.3,0.6-3.6,0.6c-4.8,0-9-3-10.5-7.6c-1-2.8-0.8-5.8,0.6-8.5c1.3-2.7,3.6-4.7,6.4-5.6c0.9-0.3,1.9-0.5,2.8-0.6
				c-0.1-0.3-0.2-0.7-0.4-1l-0.1-0.5c-0.3-0.9-0.6-1.6-0.8-2.3c-6.5-19.3-21.8-32.4-34.7-28.9c-11.9,4.7-16.4,24.4-9.8,43.8
				c0.1,0.4,0.3,0.8,0.4,1.2c0.1,0.4,0.3,0.7,0.4,1.1c0.3,0.9,0.5,1.7,0.8,2.5c2.1-2.5,5.2-4.1,8.7-4.1c6,0,11,4.9,11.2,10.9h0.3
				l-0.4,2.5c-0.7,4-3.6,7.3-7.5,8.6c-2.5,0.9-5.4,0.7-7.9-0.3c-0.7,0.2-1.3,0.4-2.1,0.6l-0.4,0.1c-1,0.2-1.8,0.3-2.7,0.3
				c-4.6,0-8.5-3.2-11.6-9.4c-1.2-2.3-1.9-4.6-2.6-6.8l-0.8-2.4c-0.6-1.8-1.1-3.5-1.5-5.1c-5.3-20.6-0.8-41.2,11.3-51.9
				c-0.9-1.6-1.7-3.2-2.5-4.8c-1.7-3.4-3.1-6.2-4.3-8.7c-5.2,3.1-10.1,6.3-14.4,9.6c-9.2,6.8-18.5,14.3-23,24.2
				c-3.8,8.4-3.5,18.6-3.3,28.5l0.2,3.8c0.1,1.7,0.1,3.9,0.1,6c-0.1,4.4,2.8,12,7.5,14.8c0.6,0.3,1.2,0.7,1.9,1.2
				c5.1,3.2,10.8,6.6,16.7,9.3c18.7,8.3,40.4,14.3,68.5,18.7c9.4,1.5,18.3,2.6,27.1,3.3c8.4,0.7,16.8,1.1,25.5,1.1h2.7
				c8.7,0,17.1-0.4,25.5-1.1c8.9-0.7,17.7-1.8,27.1-3.3c28-4.4,49.8-10.4,68.6-18.7c5.9-2.6,11.5-6,16.8-9.3
				c0.5-0.4,1.2-0.8,1.8-1.1c4.7-2.8,7.6-10.4,7.5-14.7c0-1.1,0-2.3,0.1-3.4v-2.6l0.1-3.6c0.3-10,0.6-20.4-3.2-28.9
				c-4.4-9.8-13.8-17.3-23-24.2c-3-2.3-6.2-4.4-9.1-6.3c-1,3.8-2,7.1-3.1,10.2c-3.1,8.7-6.9,16.8-11.4,24.2
				c3.6,4.9,5.6,10.8,5.6,16.9c0,8-3.5,15.7-9.5,21.1c-5.1,4.6-11.8,7.1-18.7,7.1c-0.7,0-1.4,0-2.1-0.1c-14.7-1-26.2-13.4-26.2-28.1
				c0-15.6,12.7-28.2,28.2-28.2c3.6,0,7.2,0.7,10.6,2.1c4.2-7.1,7.7-15.1,10.5-23.7c0.9-3,1.8-6.1,2.6-9.4
				c-3.5-1.9-6.9-3.7-10.1-5.3l-6.5-3.3c-2.8-1.5-5.7-2.9-8.6-4.3l-0.2-0.1c-5-2.3-9.2-3.9-13.2-5.1c-0.3-0.1-0.6-0.3-0.9-0.4
				c-1.2,1.8-2.3,3.5-3.4,5.1c-3.3,4.9-6.9,9.9-10.8,15.3c-5.7,7.8-11.6,15.5-17.2,22.7l-29.4,27.4
				C149.7,226.3,123.4,201.9,121.9,200z"/>
		</g>
		<g>
			<path class="st0" d="M239.5,233.6c0,7.2-5.9,13.1-13.1,13.1c-7.2,0-13.1-5.9-13.1-13.1c0-7.3,5.9-13.1,13.1-13.1
				c1.5,0,3,0.3,4.5,0.8c3,1.1,5.6,3.3,7.1,6.2C239,229.3,239.5,231.4,239.5,233.6z"/>
		</g>
	</g>
</g>
</svg>
