<?xml version="1.0" encoding="utf-8"?>
<!-- Generator: Adobe Illustrator 23.0.0, SVG Export Plug-In . SVG Version: 6.00 Build 0)  -->
<svg version="1.1" id="Capa_1" xmlns="http://www.w3.org/2000/svg" xmlns:xlink="http://www.w3.org/1999/xlink" x="0px" y="0px"
	 viewBox="0 0 300 299.9" style="enable-background:new 0 0 300 299.9;" xml:space="preserve">
<style type="text/css">
	.st0{fill:#062F51;}
	.st1{fill:#92DCE8;}
</style>
<path id="Rectángulo_610" class="st0" d="M150,0L150,0c82.9,0,150,67.1,150,150l0,0l0,0c0,82.8-67.1,150-150,150l0,0H0l0,0V150
	C0,67.1,67.1,0,150,0L150,0z"/>
<g>
	<path class="st1" d="M117.3,123.8c-0.8,0-1.7,0.1-3.4,0.2v17.7c1.4,0,2,0.1,3.1,0.1c3.1,0,5.2-1,6.5-3.2c1-1.6,1.6-3.8,1.6-6.4
		C125.1,126.5,122.6,123.8,117.3,123.8z"/>
	<path class="st1" d="M93.4,123.8c-0.7,0-1.8,0-2.1,0.1v7.4c0.3,0.1,1.3,0.1,1.8,0.1c5.2,0,5.8-2.1,5.8-4
		C98.9,126.3,99,123.8,93.4,123.8z"/>
	<path class="st1" d="M166.2,117.1c0-5.3-4.3-9.7-9.7-9.7H81.2c-5.3,0-9.7,4.3-9.7,9.7v31.6c0,5.3,4.3,9.7,9.7,9.7h75.3
		c5.3,0,9.7-4.3,9.7-9.7V117.1z M101.6,134.5c-2.3,1.7-5.3,2.6-8.9,2.6c-0.4,0-1.4,0-1.4,0V148h-6.2v-29l1.2-0.2
		c2.7-0.5,5.1-0.7,7.2-0.7c3.5,0,6.4,0.8,8.4,2.5c2.2,1.7,3.3,4,3.3,6.7C105.2,130.2,104,132.7,101.6,134.5z M128.3,142.6
		c-2.6,3.2-6.5,4.9-11.8,4.9c-1.6,0-3.8-0.2-7.3-0.6l-0.9-0.1v-27.9l0.8-0.1c4.3-0.5,6.7-0.7,8.3-0.7c4.9,0,8.6,1.5,11,4.5
		c2,2.4,3,5.7,3,9.7C131.4,136.5,130.4,140,128.3,142.6z M152.7,124h-12.5v5.5h11.4v6.2h-11.4V148h-6.6v-29.5h19.1V124z"/>
	<path class="st1" d="M171.4,46v0.4h-69.2c-5.4,0-9.8,4.1-9.8,9.5v46.7h8V60.5c0-3.6,2.9-6.5,6.4-6.5h64.6v45.5c0,5.3,4.3,10,9.7,10
		h45.4v111.7c0,3.6-2.8,6.5-6.4,6.5h-29.2c-0.2,0.3-0.4,0.6-0.6,0.9l-5.4,7.1h39.8c5.4,0,9.7-4.5,9.7-9.9V109.2L171.4,46z"/>
	<path class="st1" d="M135.9,227.7h-29.2c-3.6,0-6.4-3-6.4-6.5v-58.3h-8v62.9c0,5.4,4.4,9.9,9.8,9.9h39.8l-5.4-7.1
		C136.3,228.3,136.1,228,135.9,227.7z"/>
	<path class="st1" d="M184.5,221.8h-10.4V186c0-2.4-1.9-4.4-4.3-4.4H157c-2.4,0-4.3,2.1-4.3,4.4v35.8h-10.4c-2.1,0-3.3,2.2-2,3.8
		l21.1,27.5c1,1.3,3.1,1.3,4.1,0l21.1-27.5C187.8,224,186.6,221.8,184.5,221.8z"/>
</g>
</svg>
