<?xml version="1.0" encoding="utf-8"?>
<!-- Generator: Adobe Illustrator 23.0.0, SVG Export Plug-In . SVG Version: 6.00 Build 0)  -->
<svg version="1.1" id="Capa_1" xmlns="http://www.w3.org/2000/svg" xmlns:xlink="http://www.w3.org/1999/xlink" x="0px" y="0px"
	 viewBox="0 0 300 299.9" style="enable-background:new 0 0 300 299.9;" xml:space="preserve">
<style type="text/css">
	.st0{fill:#062F51;}
	.st1{fill:#92DCE8;}
	.st2{fill-rule:evenodd;clip-rule:evenodd;fill:#92DCE8;}
</style>
<path id="Rectángulo_610" class="st0" d="M150,0L150,0c82.9,0,150,67.1,150,150c0,0,0,0,0,0l0,0c0,82.8-67.1,150-150,150
	c0,0,0,0,0,0H0l0,0V150C0,67.1,67.1,0,150,0C150,0,150,0,150,0z"/>
<g id="shape_2">
	
		<image style="overflow:visible;opacity:4.000000e-02;" width="232" height="233" xlink:href="3686FDEE.png"  transform="matrix(1 0 0 1 34 32.944)">
	</image>
	<g>
		<g>
			<path class="st1" d="M46.5,252l14.6-53.4c-9-15.6-13.8-33.4-13.8-51.5C47.4,90.2,93.6,44,150.4,44c27.6,0,53.5,10.7,72.9,30.2
				c19.5,19.5,30.2,45.4,30.2,72.9c0,56.8-46.3,103.1-103.1,103.1c0,0,0,0,0,0h0c-17.3,0-34.2-4.3-49.3-12.5L46.5,252z M103.7,219
				l3.1,1.9c13.2,7.8,28.2,11.9,43.6,11.9h0c47.2,0,85.7-38.4,85.7-85.7c0-22.9-8.9-44.4-25.1-60.6c-16.2-16.2-37.7-25.1-60.6-25.1
				c-47.3,0-85.7,38.4-85.7,85.7c0,16.2,4.5,31.9,13.1,45.6l2,3.2l-8.7,31.6L103.7,219z"/>
		</g>
	</g>
</g>
<g id="shape_1">
	
		<image style="overflow:visible;opacity:6.000000e-02;" width="129" height="122" xlink:href="3686FDF2.png"  transform="matrix(1 0 0 1 86 88.944)">
	</image>
	<g>
		<path class="st2" d="M124.7,104c-1.9-4.3-4-4.4-5.8-4.5c-1.5-0.1-3.2-0.1-4.9-0.1c-1.7,0-4.5,0.6-6.9,3.2c-2.4,2.6-9,8.8-9,21.5
			c0,12.7,9.2,24.9,10.5,26.6c1.3,1.7,17.8,28.6,44,38.9c21.8,8.6,26.2,6.9,30.9,6.4c4.7-0.4,15.2-6.2,17.4-12.2
			c2.1-6,2.1-11.2,1.5-12.2c-0.6-1.1-2.4-1.7-4.9-3s-15.2-7.5-17.6-8.4s-4.1-1.3-5.8,1.3c-1.7,2.6-6.7,8.4-8.2,10.1
			c-1.5,1.7-3,1.9-5.6,0.6c-2.6-1.3-10.9-4-20.7-12.8c-7.7-6.8-12.8-15.3-14.3-17.8c-1.5-2.6-0.2-4,1.1-5.3c1.2-1.2,2.6-3,3.9-4.5
			c1.3-1.5,1.7-2.6,2.6-4.3c0.9-1.7,0.4-3.2-0.2-4.5S127,109.1,124.7,104z"/>
	</g>
</g>
</svg>
