<?xml version="1.0" encoding="UTF-8"?>
<svg width="301px" height="66px" viewBox="0 0 301 66" version="1.1" xmlns="http://www.w3.org/2000/svg" xmlns:xlink="http://www.w3.org/1999/xlink">
    <!-- Generator: Sketch 61.2 (89653) - https://sketch.com -->
    <title>Group 2</title>
    <desc>Created with Sketch.</desc>
    <g id="Page-1" stroke="none" stroke-width="1" fill="none" fill-rule="evenodd">
        <g id="Group-2" fill="#FFFFFF">
            <g id="avivacura_logo" fill-rule="nonzero">
                <g id="Group" transform="translate(0.000000, 29.000000)">
                    <path d="M31.1,26.7 C31.1,30.5 31.6,33.2 32.7,34.9 C31.8,35.2 31,35.5 30.3,35.6 C29.6,35.7 28.8,35.8 28,35.8 C26.3,35.8 25,35.5 24.1,34.8 C23.2,34.1 22.7,33.2 22.4,31.9 C21.3,33 20,33.9 18.2,34.7 C16.5,35.5 14.4,35.8 11.9,35.8 C10.6,35.8 9.3,35.6 8,35.3 C6.7,34.9 5.5,34.4 4.5,33.6 C3.4,32.8 2.6,31.7 1.9,30.3 C1.2,28.9 0.9,27.3 0.9,25.3 C1,23 1.6,21 2.8,19.5 C4,18 5.4,16.8 7.2,15.9 C9,15 10.9,14.4 12.9,14.1 C15,13.8 16.8,13.6 18.6,13.5 C19.2,13.5 19.7,13.4 20.3,13.4 C20.8,13.4 21.4,13.4 21.8,13.4 L21.8,12.1 C21.8,10.3 21.3,9 20.3,8.2 C19.3,7.4 17.7,7 15.5,7 C13.4,7 11.6,7.3 10,8 C8.4,8.7 6.8,9.4 5.3,10.3 C4.6,9.5 4.1,8.6 3.7,7.6 C3.3,6.6 3.1,5.9 3.1,5.4 C3.1,4.7 3.5,4.1 4.2,3.5 C4.9,2.9 6,2.3 7.2,1.8 C8.5,1.3 10,0.9 11.6,0.6 C13.3,0.3 15,0.1 16.9,0.1 C19.5,0.1 21.7,0.4 23.5,0.9 C25.3,1.4 26.7,2.2 27.9,3.3 C29,4.4 29.8,5.8 30.3,7.4 C30.8,9 31,11 31,13.2 L31,26.7 L31.1,26.7 Z M21.9,18.4 C21.6,18.4 21.2,18.4 20.9,18.4 C20.6,18.4 20.2,18.4 19.9,18.5 C18.7,18.6 17.5,18.7 16.4,18.9 C15.2,19.1 14.2,19.4 13.3,19.9 C12.4,20.4 11.7,21 11.1,21.8 C10.5,22.6 10.2,23.5 10.2,24.7 C10.2,26 10.6,27.2 11.3,28.1 C12.1,29 13.4,29.5 15.2,29.5 C16.1,29.5 17,29.4 17.8,29.1 C18.6,28.9 19.3,28.6 19.9,28.2 C20.5,27.8 21,27.4 21.4,26.9 C21.8,26.4 21.9,26 21.9,25.6 L21.9,18.4 Z" id="Shape"></path>
                    <path d="M67.8,6.5 C67.8,5.3 68,4.3 68.4,3.6 C68.8,2.9 69.3,2.3 69.9,1.9 C70.5,1.5 71.2,1.2 72,1.1 C72.8,1 73.5,0.9 74.3,0.9 C75.1,0.9 75.8,0.9 76.5,1 C77.2,1.1 77.6,1.1 77.6,1.2 L77.6,29.9 C77.6,31.1 77.4,32.1 77.1,32.8 C76.8,33.6 76.4,34.2 75.8,34.6 C75.3,35.1 74.6,35.4 73.8,35.5 C73,35.7 72.2,35.8 71.2,35.8 C70.4,35.8 69.7,35.8 69.1,35.7 C68.4,35.7 68,35.6 67.8,35.5 L67.8,6.5 Z" id="Path"></path>
                    <path d="M143.4,26.7 C143.4,30.5 143.9,33.2 145,34.9 C144.1,35.2 143.3,35.5 142.6,35.6 C141.9,35.7 141.1,35.8 140.3,35.8 C138.6,35.8 137.3,35.5 136.4,34.8 C135.5,34.1 135,33.2 134.7,31.9 C133.6,33 132.3,33.9 130.5,34.7 C128.8,35.5 126.7,35.8 124.2,35.8 C122.9,35.8 121.6,35.6 120.3,35.3 C119,34.9 117.8,34.4 116.8,33.6 C115.7,32.8 114.9,31.7 114.2,30.3 C113.5,28.9 113.2,27.3 113.2,25.3 C113.2,22.9 113.8,20.9 115,19.4 C116.2,17.9 117.6,16.7 119.4,15.8 C121.2,14.9 123.1,14.3 125.1,14 C127.2,13.7 129,13.5 130.8,13.4 C131.4,13.4 131.9,13.3 132.5,13.3 C133,13.3 133.6,13.3 134,13.3 L134,12 C134,10.2 133.5,8.9 132.5,8.1 C131.5,7.3 129.9,6.9 127.7,6.9 C125.6,6.9 123.8,7.2 122.2,7.9 C120.6,8.6 119,9.3 117.5,10.2 C116.8,9.4 116.3,8.5 115.9,7.5 C115.5,6.5 115.3,5.8 115.3,5.3 C115.3,4.6 115.7,4 116.4,3.4 C117.1,2.8 118.2,2.2 119.4,1.7 C120.7,1.2 122.2,0.8 123.8,0.5 C125.5,0.2 127.2,7.10542736e-15 129.1,7.10542736e-15 C131.7,7.10542736e-15 133.9,0.3 135.7,0.8 C137.5,1.3 138.9,2.1 140.1,3.2 C141.2,4.3 142,5.7 142.5,7.3 C143,8.9 143.2,10.9 143.2,13.1 L143.2,26.7 L143.4,26.7 Z M134.2,18.4 C133.9,18.4 133.5,18.4 133.2,18.4 C132.9,18.4 132.5,18.4 132.2,18.5 C131,18.6 129.8,18.7 128.7,18.9 C127.5,19.1 126.5,19.4 125.6,19.9 C124.7,20.4 124,21 123.4,21.8 C122.8,22.6 122.5,23.5 122.5,24.7 C122.5,26 122.9,27.2 123.6,28.1 C124.4,29 125.7,29.5 127.5,29.5 C128.4,29.5 129.3,29.4 130.1,29.1 C130.9,28.9 131.6,28.6 132.2,28.2 C132.8,27.8 133.3,27.4 133.7,26.9 C134.1,26.4 134.2,26 134.2,25.6 L134.2,18.4 Z" id="Shape"></path>
                    <path d="M66.3,1.8 C65.7,1.6 65,1.3 64.1,1.1 C63.2,0.9 62.3,0.8 61.3,0.8 C60.3,0.8 59.4,0.9 58.7,1.2 C58,1.5 57.4,1.9 56.9,2.5 C56.4,3.1 56,3.8 55.7,4.6 C55.4,5.4 55,6.4 54.7,7.4 L49.2,22 L43.9,7.8 C43.6,6.8 43.3,5.8 43,4.9 C42.7,4 42.3,3.3 41.8,2.7 C41.3,2.1 40.7,1.6 39.9,1.3 C39.1,1 38.2,0.8 37,0.8 C35.1,0.8 33.4,1.1 31.7,1.8 L43.7,31.4 C44.4,33.7 46.6,35.4 49.1,35.4 C51.6,35.4 53.7,33.8 54.4,31.6 L66.3,1.8 Z" id="Path"></path>
                    <path d="M113.9,1.8 C113.3,1.6 112.6,1.3 111.7,1.1 C110.8,0.9 109.9,0.8 108.9,0.8 C107.9,0.8 107,0.9 106.3,1.2 C105.6,1.5 105,1.9 104.5,2.5 C104,3.1 103.6,3.8 103.3,4.6 C103,5.4 102.6,6.4 102.3,7.4 L96.8,22 L91.5,7.8 C91.2,6.8 90.9,5.8 90.6,4.9 C90.3,4 89.9,3.3 89.4,2.7 C88.9,2.1 88.3,1.6 87.5,1.3 C86.7,1 85.8,0.8 84.6,0.8 C82.7,0.8 81,1.1 79.3,1.8 L91.3,31.4 C92,33.7 94.2,35.4 96.7,35.4 C99.2,35.4 101.3,33.8 102,31.6 L113.9,1.8 Z" id="Path"></path>
                </g>
                <g id="Group" transform="translate(265.000000, 0.000000)">
                    <path d="M7.6,22.7 L13.3,22.7 L13.3,12.7 L0.6,12.7 L0.6,15.8 C0.6,19.6 3.7,22.7 7.6,22.7 Z" id="Path"></path>
                    <path d="M23.3,28.4 L23.3,22.7 L13.3,22.7 L13.3,35.4 L16.4,35.4 C20.2,35.4 23.3,32.3 23.3,28.4 Z" id="Path"></path>
                    <path d="M29,12.7 L23.3,12.7 L23.3,22.7 L36,22.7 L36,19.6 C36,15.8 32.9,12.7 29,12.7 Z" id="Path"></path>
                    <path d="M13.3,7 L13.3,12.7 L23.3,12.7 L23.3,0 L20.2,0 C16.4,0 13.3,3.1 13.3,7 Z" id="Path"></path>
                </g>
            </g>
            <text id="tele" font-family="AvenirLT-Black, Avenir LT 65 Medium" font-size="68" font-weight="bold">
                <tspan x="149" y="65">tele</tspan>
            </text>
        </g>
    </g>
</svg>