<?xml version="1.0" encoding="utf-8"?>
<!-- Generator: Adobe Illustrator 23.0.0, SVG Export Plug-In . SVG Version: 6.00 Build 0)  -->
<svg version="1.1" id="Capa_1" xmlns="http://www.w3.org/2000/svg" xmlns:xlink="http://www.w3.org/1999/xlink" x="0px" y="0px"
	 viewBox="0 0 500 180.17" style="enable-background:new 0 0 500 180.17;" xml:space="preserve">
<style type="text/css">
	.st0{fill:#2E758F;}
	.st1{fill:#4799AF;}
</style>
<g>
	<g>
		<path class="st0" d="M98.97,151.61c0,9.89,1.44,17.09,4.32,21.59c-2.25,0.87-4.35,1.5-6.29,1.88c-1.94,0.38-3.98,0.56-6.1,0.56
			c-4.5,0-7.92-0.88-10.23-2.63c-2.32-1.75-3.79-4.25-4.41-7.51c-2.75,2.88-6.38,5.32-10.89,7.32c-4.51,2-10.02,3-16.52,3
			c-3.38,0-6.76-0.47-10.14-1.4c-3.38-0.94-6.45-2.47-9.2-4.59c-2.75-2.12-5.01-4.96-6.76-8.52c-1.76-3.55-2.63-7.89-2.63-13.01
			c0-6.36,1.53-11.54,4.6-15.53c3.06-3.99,6.91-7.14,11.55-9.45c4.63-2.31,9.64-3.89,15.02-4.77c5.38-0.87,10.33-1.43,14.83-1.69
			c1.5-0.12,2.97-0.19,4.41-0.19c1.44,0,2.78,0,4.04,0v-3.42c0-4.81-1.29-8.23-3.85-10.25c-2.57-2.02-6.73-3.04-12.48-3.04
			c-5.38,0-10.17,0.88-14.36,2.63c-4.19,1.75-8.29,3.75-12.3,6.01c-1.75-2.13-3.16-4.47-4.22-7.04c-1.07-2.56-1.6-4.47-1.6-5.73
			c0-1.75,0.97-3.44,2.91-5.07c1.94-1.63,4.6-3.1,7.98-4.41c3.38-1.32,7.26-2.38,11.64-3.19c4.38-0.81,9.01-1.22,13.89-1.22
			c6.76,0,12.48,0.69,17.18,2.07c4.69,1.38,8.51,3.51,11.45,6.38c2.94,2.88,5.04,6.48,6.29,10.8c1.25,4.32,1.88,9.36,1.88,15.11
			V151.61z M74.93,129.83c-0.88,0-1.75,0-2.63,0c-0.88,0-1.76,0.06-2.63,0.19c-3.13,0.25-6.23,0.63-9.29,1.13
			c-3.07,0.5-5.79,1.38-8.17,2.63c-2.38,1.25-4.32,2.88-5.82,4.88c-1.5,2-2.25,4.57-2.25,7.7c0,3.51,1,6.48,3,8.92
			c2,2.44,5.38,3.66,10.14,3.66c2.38,0,4.63-0.31,6.76-0.94c2.13-0.63,4-1.44,5.63-2.44c1.63-1,2.91-2.1,3.85-3.29
			s1.41-2.28,1.41-3.29V129.83z"/>
		<path class="st0" d="M195.7,98.67c0-3.13,0.5-5.66,1.5-7.6c1-1.94,2.32-3.44,3.94-4.5c1.63-1.06,3.44-1.78,5.44-2.16
			c2-0.37,4.01-0.56,6.01-0.56c2,0,3.94,0.09,5.82,0.28c1.88,0.19,2.82,0.35,2.82,0.47v75.1c0,3.13-0.4,5.7-1.22,7.7
			c-0.81,2-1.94,3.6-3.38,4.79c-1.44,1.19-3.16,2-5.16,2.44c-2,0.44-4.25,0.66-6.76,0.66c-2,0-3.88-0.06-5.63-0.19
			c-1.75-0.13-2.88-0.31-3.38-0.56V98.67z"/>
		<path class="st0" d="M394.42,151.61c0,9.89,1.44,17.09,4.32,21.59c-2.25,0.87-4.35,1.5-6.29,1.88c-1.94,0.38-3.98,0.56-6.1,0.56
			c-4.5,0-7.92-0.88-10.23-2.63c-2.32-1.75-3.79-4.25-4.41-7.51c-2.75,2.88-6.38,5.32-10.89,7.32c-4.51,2-10.02,3-16.52,3
			c-3.38,0-6.76-0.47-10.14-1.4c-3.38-0.94-6.45-2.47-9.2-4.59c-2.75-2.12-5.01-4.96-6.76-8.52c-1.76-3.55-2.63-7.89-2.63-13.01
			c0-6.36,1.53-11.54,4.6-15.53c3.06-3.99,6.91-7.14,11.55-9.45c4.63-2.31,9.64-3.89,15.02-4.77c5.38-0.87,10.33-1.43,14.83-1.69
			c1.5-0.12,2.97-0.19,4.41-0.19c1.44,0,2.78,0,4.04,0v-3.42c0-4.81-1.29-8.23-3.85-10.25c-2.57-2.02-6.73-3.04-12.48-3.04
			c-5.38,0-10.17,0.88-14.36,2.63c-4.19,1.75-8.29,3.75-12.3,6.01c-1.75-2.13-3.16-4.47-4.22-7.04c-1.07-2.56-1.6-4.47-1.6-5.73
			c0-1.75,0.97-3.44,2.91-5.07c1.94-1.63,4.6-3.1,7.98-4.41c3.38-1.32,7.26-2.38,11.64-3.19c4.38-0.81,9.01-1.22,13.89-1.22
			c6.76,0,12.48,0.69,17.18,2.07c4.69,1.38,8.51,3.51,11.45,6.38c2.94,2.88,5.04,6.48,6.29,10.8c1.25,4.32,1.88,9.36,1.88,15.11
			V151.61z M370.39,129.83c-0.88,0-1.75,0-2.63,0c-0.88,0-1.76,0.06-2.63,0.19c-3.13,0.25-6.23,0.63-9.29,1.13
			c-3.07,0.5-5.79,1.38-8.17,2.63c-2.38,1.25-4.32,2.88-5.82,4.88c-1.5,2-2.25,4.57-2.25,7.7c0,3.51,1,6.48,3,8.92
			c2,2.44,5.38,3.66,10.14,3.66c2.38,0,4.63-0.31,6.76-0.94c2.13-0.63,4-1.44,5.63-2.44c1.63-1,2.91-2.1,3.85-3.29
			c0.94-1.19,1.41-2.28,1.41-3.29V129.83z"/>
		<path class="st0" d="M191.44,86.36c-1.53-0.65-3.45-1.23-5.74-1.75c-2.3-0.51-4.73-0.77-7.28-0.77c-2.68,0-4.95,0.39-6.8,1.16
			c-1.85,0.77-3.42,1.94-4.69,3.49c-1.28,1.55-2.36,3.43-3.26,5.63c-0.89,2.2-1.72,4.66-2.49,7.37l-14.56,37.82l-13.79-37.23
			c-0.77-2.72-1.57-5.21-2.4-7.47c-0.83-2.26-1.91-4.17-3.26-5.72c-1.34-1.55-3-2.78-4.98-3.69c-1.98-0.9-4.5-1.36-7.57-1.36
			c-4.85,0-9.45,0.84-13.79,2.52l31.34,77.53c1.89,6.08,7.5,10.48,14.14,10.48c6.49,0,11.98-4.22,13.99-10.08L191.44,86.36z"/>
		<path class="st0" d="M316.99,86.36c-1.53-0.65-3.45-1.23-5.74-1.75c-2.3-0.51-4.73-0.77-7.28-0.77c-2.68,0-4.95,0.39-6.8,1.16
			c-1.85,0.77-3.42,1.94-4.69,3.49c-1.28,1.55-2.36,3.43-3.26,5.63c-0.89,2.2-1.72,4.66-2.49,7.37l-14.56,37.82l-13.79-37.23
			c-0.77-2.72-1.57-5.21-2.4-7.47c-0.83-2.26-1.91-4.17-3.26-5.72c-1.34-1.55-3-2.78-4.98-3.69c-1.98-0.9-4.5-1.36-7.57-1.36
			c-4.85,0-9.45,0.84-13.79,2.52l31.34,77.53c1.89,6.08,7.5,10.48,14.14,10.48c6.49,0,11.98-4.22,13.99-10.08L316.99,86.36z"/>
	</g>
	<g>
		<path class="st1" d="M246.06,49.31c-0.48-0.54-1.08-0.96-1.78-1.25c-0.71-0.29-1.52-0.44-2.45-0.44c-0.93,0-1.78,0.17-2.57,0.49
			c-0.79,0.33-1.47,0.79-2.05,1.38c-0.58,0.59-1.03,1.29-1.36,2.11c-0.33,0.81-0.49,1.69-0.49,2.64c0,0.97,0.16,1.86,0.49,2.66
			c0.33,0.8,0.77,1.5,1.34,2.09s1.24,1.05,2,1.38c0.77,0.33,1.6,0.49,2.48,0.49c1.01,0,1.9-0.19,2.68-0.58
			c0.78-0.39,1.42-0.93,1.93-1.63l4.1,2.82c-0.95,1.22-2.15,2.12-3.6,2.7s-2.95,0.87-4.48,0.87c-1.75,0-3.36-0.25-4.83-0.75
			c-1.47-0.5-2.75-1.22-3.82-2.17c-1.07-0.94-1.91-2.08-2.51-3.41c-0.6-1.34-0.9-2.83-0.9-4.47c0-1.65,0.3-3.14,0.9-4.47
			c0.6-1.34,1.44-2.47,2.51-3.41c1.07-0.94,2.34-1.66,3.82-2.17c1.47-0.5,3.08-0.75,4.83-0.75c0.63,0,1.29,0.05,1.97,0.16
			c0.68,0.11,1.36,0.28,2.02,0.51c0.66,0.23,1.3,0.54,1.91,0.93c0.61,0.39,1.16,0.86,1.64,1.42L246.06,49.31z"/>
		<path class="st1" d="M253.82,43.96h4.92v16.39h9.12v4.18h-14.05V43.96z"/>
		<path class="st1" d="M274.54,38.27h6.44l-5.46,4.18h-4.17L274.54,38.27z M272.05,43.96h4.92v20.57h-4.92V43.96z"/>
		<path class="st1" d="M281.83,43.96h6.69l9.5,14.3h0.06v-14.3h4.92v20.57h-6.44l-9.75-14.65h-0.06v14.65h-4.92V43.96z"/>
		<path class="st1" d="M307.73,43.96h4.92v20.57h-4.92V43.96z"/>
		<path class="st1" d="M332.64,49.31c-0.48-0.54-1.08-0.96-1.78-1.25c-0.7-0.29-1.52-0.44-2.45-0.44c-0.93,0-1.78,0.17-2.57,0.49
			c-0.79,0.33-1.47,0.79-2.05,1.38c-0.58,0.59-1.03,1.29-1.36,2.11c-0.33,0.81-0.49,1.69-0.49,2.64c0,0.97,0.16,1.86,0.49,2.66
			c0.33,0.8,0.77,1.5,1.34,2.09s1.24,1.05,2,1.38c0.77,0.33,1.59,0.49,2.48,0.49c1.01,0,1.9-0.19,2.68-0.58
			c0.78-0.39,1.42-0.93,1.93-1.63l4.1,2.82c-0.95,1.22-2.15,2.12-3.6,2.7s-2.95,0.87-4.48,0.87c-1.75,0-3.36-0.25-4.83-0.75
			c-1.47-0.5-2.74-1.22-3.82-2.17c-1.07-0.94-1.91-2.08-2.51-3.41c-0.6-1.34-0.9-2.83-0.9-4.47c0-1.65,0.3-3.14,0.9-4.47
			c0.6-1.34,1.44-2.47,2.51-3.41c1.08-0.94,2.35-1.66,3.82-2.17c1.47-0.5,3.08-0.75,4.83-0.75c0.63,0,1.29,0.05,1.97,0.16
			s1.36,0.28,2.02,0.51c0.66,0.23,1.3,0.54,1.91,0.93c0.61,0.39,1.16,0.86,1.64,1.42L332.64,49.31z"/>
		<path class="st1" d="M347.79,43.96h4.07l9.72,20.57h-5.56l-1.93-4.36h-8.68l-1.86,4.36h-5.43L347.79,43.96z M349.68,49.95
			l-2.71,6.39h5.46L349.68,49.95z"/>
	</g>
	<g>
		<path class="st0" d="M400.42,64.53h19.97V38.26h-33.13v13.11C387.26,58.64,393.15,64.53,400.42,64.53z"/>
		<path class="st0" d="M446.65,84.5V64.53h-26.27v33.13h13.11C440.76,97.65,446.65,91.76,446.65,84.5z"/>
		<path class="st1" d="M466.62,38.26h-19.97v26.27h33.13V51.42C479.78,44.15,473.89,38.26,466.62,38.26z"/>
		<path class="st1" d="M420.38,18.29v19.97h26.27V5.13h-13.11C426.28,5.13,420.38,11.03,420.38,18.29z"/>
	</g>
</g>
</svg>
