<?xml version="1.0" encoding="utf-8"?>
<!-- Generator: Adobe Illustrator 23.0.3, SVG Export Plug-In . SVG Version: 6.00 Build 0)  -->
<svg version="1.1" id="Layer_1" xmlns="http://www.w3.org/2000/svg" xmlns:xlink="http://www.w3.org/1999/xlink" x="0px" y="0px"
	 viewBox="0 0 300 300" style="enable-background:new 0 0 300 300;" xml:space="preserve">
<style type="text/css">
	.st0{fill: #92DCE8;}
</style>
<g>
	<path class="st0" d="M294.8,268.9l-77.4-76.4l-1.4-1.3l1.1-1.6c15.3-23,22-50.8,19-78.5c-6-54.5-50-98.2-104.5-104
		c-4.1-0.4-8.3-0.7-12.5-0.7c-30.7,0-59.8,11.7-81.8,32.9c-25.1,24.2-38.3,58-36,92.8C5,190.1,51.3,237.2,108.9,242
		c3.4,0.3,6.8,0.4,10.2,0.4c28.3,0,54.7-9.8,76.3-28.2l1.6-1.4l1.5,1.5l76,74.9c2.7,2.7,6.3,4.2,10.2,4.2s7.5-1.5,10.2-4.2
		C300.4,283.6,300.4,274.5,294.8,268.9z M118.9,205.2c-44.5,0-80.7-36.2-80.7-80.7s36.2-80.7,80.7-80.7s80.7,36.2,80.7,80.7
		S163.4,205.2,118.9,205.2z"/>
</g>
</svg>
