<?xml version="1.0" encoding="utf-8"?>
<!-- Generator: Adobe Illustrator 23.0.0, SVG Export Plug-In . SVG Version: 6.00 Build 0)  -->
<svg version="1.1" id="Layer_1" xmlns="http://www.w3.org/2000/svg" xmlns:xlink="http://www.w3.org/1999/xlink" x="0px" y="0px"
	 viewBox="0 0 300 300" style="enable-background:new 0 0 300 300;" xml:space="preserve">
<style type="text/css">
	.st0{fill:#fff;}
	.st1{fill-rule:evenodd;clip-rule:evenodd;fill:#fff;}
</style>
<path class="st0" d="M224.2,35.2v44.6h-31.7V37.9H31.7v224.2h160.9v-41.9h31.7v44.6c0,16-13,29-29,29H29c-16,0-29-13-29-29V35.2
	c0-16,13-29,29-29h166.2C211.2,6.2,224.2,19.2,224.2,35.2z"/>
<path class="st1" d="M224.2,166.7l-93.5,0c-9.2,0-16.7-7.5-16.7-16.7v0c0-9.2,7.5-16.7,16.7-16.7l93.5,0v-25c0-5.1,5.4-8.4,9.9-6.3
	l63.4,42.7c1.5,1.3,2.5,3.2,2.5,5.3c0,2.1-1,4-2.5,5.3L234.1,198c-4.5,2.1-9.9-1.2-9.9-6.3V166.7z"/>
</svg>
