<?xml version="1.0" encoding="utf-8"?>
<!-- Generator: Adobe Illustrator 23.0.3, SVG Export Plug-In . SVG Version: 6.00 Build 0)  -->
<svg version="1.1" id="Capa_1" xmlns="http://www.w3.org/2000/svg" xmlns:xlink="http://www.w3.org/1999/xlink" x="0px" y="0px"
	 viewBox="0 0 300 300" style="enable-background:new 0 0 300 300;" xml:space="preserve">
<style type="text/css">
	.st0{fill:#062F51;}
</style>
<path class="st0" d="M293,7L293,7c-8-8-20.9-8-28.9,0L150,121.1L35.9,7C27.9-1,15-1,7,7l0,0c-8,8-8,20.9,0,28.9L121.1,150L7,264.1
	c-8,8-8,20.9,0,28.9h0c8,8,20.9,8,28.9,0L150,178.9L264.1,293c8,8,20.9,8,28.9,0h0c8-8,8-20.9,0-28.9L178.9,150L293,35.9
	C301,27.9,301,15,293,7z"/>
</svg>
