<?xml version="1.0" encoding="utf-8"?>
<!-- Generator: Adobe Illustrator 23.0.0, SVG Export Plug-In . SVG Version: 6.00 Build 0)  -->
<svg version="1.1" id="Capa_2" xmlns="http://www.w3.org/2000/svg" xmlns:xlink="http://www.w3.org/1999/xlink" x="0px" y="0px"
	 viewBox="0 0 100 100" style="enable-background:new 0 0 100 100;" xml:space="preserve">
<style type="text/css">
	.st0{fill:#20AC00;}
	.st1{fill:#FFFFFF;}
</style>
<g>
	<path class="st0" d="M57.8,67c-1.2,1.3-2.9,2-4.5,2c-1.5,0-2.9-0.5-4.1-1.6l-18-16.2c-2.5-2.3-2.8-6.3-0.5-8.8
		c1.1-1.3,2.6-2,4.3-2.1c1.7-0.1,3.3,0.5,4.5,1.6l13.5,12.1c5.6-6,13.1-14.1,20.3-22c4.4-4.8,8.9-9.7,13.1-14.2
		C77.3,7.8,64.4,1.5,50,1.5C23.2,1.5,1.5,23.2,1.5,50c0,26.8,21.7,48.5,48.5,48.5c26.8,0,48.5-21.7,48.5-48.5
		c0-7.8-1.9-15.2-5.1-21.7c-3.6,3.9-7.4,8-11.1,12.1C73.2,50.4,63.7,60.7,57.8,67z"/>
	<path class="st1" d="M73.1,31.9c-7.2,7.8-14.6,15.9-20.3,22L39.4,41.8c-1.2-1.1-2.8-1.7-4.5-1.6c-1.7,0.1-3.2,0.9-4.3,2.1
		c-2.3,2.6-2,6.5,0.5,8.8l18,16.2c1.2,1.1,2.7,1.6,4.1,1.6c1.6,0,3.3-0.7,4.5-2c6-6.3,15.4-16.6,24.5-26.6
		c3.7-4.1,7.5-8.2,11.1-12.1c-1.9-3.8-4.3-7.4-7.2-10.6C82,22.2,77.5,27.1,73.1,31.9z"/>
</g>
</svg>
