<?xml version="1.0" encoding="utf-8"?>
<!-- Generator: Adobe Illustrator 22.0.1, SVG Export Plug-In . SVG Version: 6.00 Build 0)  -->
<svg version="1.1" id="Layer_1" xmlns="http://www.w3.org/2000/svg" xmlns:xlink="http://www.w3.org/1999/xlink" x="0px" y="0px"
	 viewBox="0 0 300 300" style="enable-background:new 0 0 300 300;" xml:space="preserve">
<style type="text/css">
	.st0{fill:#519DB9;}
</style>
<path class="st0" d="M272.9,43.1h-19.4V25.7c0-8-6.5-14.5-14.5-14.5h-20.1c-8,0-14.5,6.5-14.5,14.5v17.4h-30.3V25.7
	c0-8-6.5-14.5-14.5-14.5h-20.1c-8,0-14.5,6.5-14.5,14.5v17.4H94.8V25.7c0-8-6.5-14.5-14.5-14.5H60.2c-8,0-14.5,6.5-14.5,14.5v17.4
	H27.1C12.7,43.1,1,54.8,1,69.2v193.4c0,14.4,11.7,26.1,26.1,26.1h245.7c14.4,0,26.1-11.7,26.1-26.1V69.2
	C299,54.8,287.3,43.1,272.9,43.1z M278.1,262.7c0,2.9-2.3,5.2-5.2,5.2H27.1c-2.9,0-5.2-2.4-5.2-5.2V111.1c0-2.9,2.4-5.2,5.2-5.2
	h245.7c2.9,0,5.2,2.3,5.2,5.2V262.7z"/>
<path class="st0" d="M124.3,250.4C124.3,250.4,124.3,250.4,124.3,250.4c-3.1,0-6.1-1.3-8.3-3.5l-34.5-36.3
	c-4.3-4.6-4.2-11.8,0.4-16.1c4.6-4.3,11.8-4.2,16.1,0.4l26.2,27.6l86.1-90.4c4.3-4.6,11.6-4.7,16.1-0.4c4.6,4.3,4.7,11.6,0.4,16.1
	l-94.3,99.1C130.4,249.1,127.4,250.4,124.3,250.4z"/>
</svg>
