<?xml version="1.0" encoding="utf-8"?>
<!-- Generator: Adobe Illustrator 22.0.1, SVG Export Plug-In . SVG Version: 6.00 Build 0)  -->
<svg version="1.1" id="Capa_1" xmlns="http://www.w3.org/2000/svg" xmlns:xlink="http://www.w3.org/1999/xlink" x="0px" y="0px"
	 viewBox="0 0 300 300" style="enable-background:new 0 0 300 300;" xml:space="preserve">
<style type="text/css">
	.st0{fill:#519DB9;}
</style>
<g>
	<path class="st0" d="M164.6,15.6c-67.1,0-122.8,49.4-132.8,113.7h-27c-3.8,0-4.9,2.4-2.5,5.3l33.8,41c2.4,2.9,6.3,2.9,8.6-0.1
		l32-40.8c2.3-3,1.2-5.4-2.6-5.4H50.7c9.8-54,57.1-95,113.9-95c63.8,0,115.8,51.9,115.8,115.8c0,61.9-48.9,112.7-110.1,115.6v-0.1
		c-31.5,1.5-63.5-9.7-87.6-33.7c-3.6-3.6-9.5-3.6-13.2,0c-3.6,3.6-3.6,9.5,0,13.2c26,26,60.1,39.1,94.2,39.3c0.3,0,0.6,0.1,0.9,0.1
		c74.1,0,134.4-60.3,134.4-134.4C299,75.9,238.7,15.6,164.6,15.6"/>
	<path class="st0" d="M162.1,74.4c-5.1,0-9.3,4.2-9.3,9.3v78.7c0,5.1,4.2,9.3,9.3,9.3h69.2c5.1,0,9.3-4.2,9.3-9.3
		c0-5.1-4.2-9.3-9.3-9.3h-59.8V83.7C171.4,78.6,167.2,74.4,162.1,74.4"/>
</g>
</svg>
