<?xml version="1.0" encoding="utf-8"?>
<!-- Generator: Adobe Illustrator 23.0.3, SVG Export Plug-In . SVG Version: 6.00 Build 0)  -->
<svg version="1.1" id="Capa_1" xmlns="http://www.w3.org/2000/svg" xmlns:xlink="http://www.w3.org/1999/xlink" x="0px" y="0px"
	 viewBox="0 0 300 300" style="enable-background:new 0 0 300 300;" xml:space="preserve">
<style type="text/css">
	.st0{fill:#3C5193;}
	.st1{fill:#FFFFFF;}
</style>
<g>
	<path class="st0" d="M299,150c0,81.9-67.1,149-149,149l0,0C68,299,1,232,1,150l0,0C1,68,68,1,150,1l0,0C231.9,1,299,68,299,150
		L299,150z"/>
	<path class="st1" d="M197.2,159l4.7-36.4h-36V99.4c0-10.5,2.9-17.7,18-17.7l19.2,0V49.2c-3.3-0.4-14.7-1.4-28-1.4
		c-27.8,0-46.8,16.9-46.8,48.1v26.8H96.9V159h31.4v93.3h37.5V159H197.2z"/>
</g>
</svg>
