<?xml version="1.0" encoding="utf-8"?>
<!-- Generator: Adobe Illustrator 23.0.0, SVG Export Plug-In . SVG Version: 6.00 Build 0)  -->
<svg version="1.1" id="Capa_1" xmlns="http://www.w3.org/2000/svg" xmlns:xlink="http://www.w3.org/1999/xlink" x="0px" y="0px"
	 viewBox="0 0 300 300" style="enable-background:new 0 0 300 300;" xml:space="preserve">
<style type="text/css">
	.st0{fill:#20668B;}
</style>
<path class="st0" d="M163.5,116.1h-47.4v27.1h20.3v74.5h-20.3v27.1h67.7v-27.1h-20.3V116.1z M150,95.8c11.2,0,20.3-9.1,20.3-20.3
	s-9.1-20.3-20.3-20.3s-20.3,9.1-20.3,20.3S138.8,95.8,150,95.8z M150,1C67.8,1,1,67.8,1,150s66.8,149,149,149s149-66.8,149-149
	S232.2,1,150,1z M150,271.9c-67.2,0-121.9-54.7-121.9-121.9S82.8,28.1,150,28.1c67.2,0,121.9,54.7,121.9,121.9
	S217.2,271.9,150,271.9z"/>
</svg>
