<?xml version="1.0" encoding="UTF-8"?>
<svg width="298px" height="298px" viewBox="0 0 298 298" version="1.1" xmlns="http://www.w3.org/2000/svg" xmlns:xlink="http://www.w3.org/1999/xlink">
    <!-- Generator: Sketch 61.2 (89653) - https://sketch.com -->
    <title>laboratorio 2</title>
    <desc>Created with Sketch.</desc>
    <g id="Page-1" stroke="none" stroke-width="1" fill="none" fill-rule="evenodd">
        <g id="laboratorio-2" fill="#92DCE8" fill-rule="nonzero">
            <g id="laboratorio">
                <path d="M10.5,50.4 C11.2,50.3 12,50.2 12.8,50.2 L82,50.2 C82.8,50.2 83.5,50.3 84.3,50.4 L84.3,50 C90.1,48.9 94.4,43.9 94.4,37.8 C94.4,30.9 88.9,25.4 82,25.4 L71.8,25.4 L22.9,25.4 L12.8,25.4 C6,25.4 0.4,31 0.4,37.8 C0.4,43.9 4.8,48.9 10.5,50 L10.5,50.4 Z" id="Path"></path>
                <path d="M78,179.1 L78,74.8 C77.5,74.9 77,75 76.5,75 L18.2,75 C17.7,75 17.2,74.9 16.7,74.8 L16.7,179.1 C16.7,205.1 30.4,226.3 47.3,226.3 C64.2,226.3 78,205.1 78,179.1" id="Path"></path>
                <path d="M143.6,24.8 L148.6,24.8 L228.3,24.8 L233.3,24.8 C240.1,24.8 245.7,19.2 245.7,12.4 C245.6,5.6 240,0 233.2,0 L215.9,0 L161,0 L143.7,0 C136.9,0 131.3,5.6 131.3,12.4 C131.2,19.3 136.8,24.8 143.6,24.8" id="Path"></path>
                <path d="M296.3,280 L231.1,151 C229.3,147.6 228.2,143.3 228.2,139 L228.2,49.7 L148.5,49.7 L148.5,139 C148.5,143.3 147.5,147.6 145.5,151.3 L80.5,280 C78.6,283.9 78.7,288.4 81,292.1 C83.2,295.8 87.2,298 91.5,298 L285.1,298 C289.4,298 293.4,295.8 295.6,292.1 C298,288.4 298.2,283.8 296.3,280" id="Path"></path>
            </g>
        </g>
    </g>
</svg>