<?xml version="1.0" encoding="utf-8"?>
<!-- Generator: Adobe Illustrator 23.0.3, SVG Export Plug-In . SVG Version: 6.00 Build 0)  -->
<svg version="1.1" id="Layer_1" xmlns="http://www.w3.org/2000/svg" xmlns:xlink="http://www.w3.org/1999/xlink" x="0px" y="0px"
	 viewBox="0 0 300 300" style="enable-background:new 0 0 300 300;" xml:space="preserve">
<style type="text/css">
	.st0{fill:#fff;}
</style>
<path class="st0" d="M221.4,87.2c-5.1,45.5-37,79.4-71.4,79.5c-34.4-0.1-66.3-34-71.4-79.5C73.5,41.8,105.4,1,150,1
	C194.6,1,226.5,41.8,221.4,87.2z"/>
<path class="st0" d="M247.7,174.4c-11.8-5-33.6-11.9-37.5-13.3l-59.6,72.5l-60-72.5c-4.1,1.4-15.9,4.1-38.2,13.3
	c-27.9,11.5-46,35.4-46.2,55.2V299h236.2c28.5,0,51.5-23.1,51.5-51.5v-17.8C293.6,209.8,275.5,186.1,247.7,174.4z"/>
</svg>
