<?xml version="1.0" encoding="utf-8"?>
<!-- Generator: Adobe Illustrator 23.0.0, SVG Export Plug-In . SVG Version: 6.00 Build 0)  -->
<svg version="1.1" id="Modo_de_aislamiento" xmlns="http://www.w3.org/2000/svg" xmlns:xlink="http://www.w3.org/1999/xlink"
	 x="0px" y="0px" viewBox="0 0 380 94.2" style="enable-background:new 0 0 380 94.2;" xml:space="preserve">
<style type="text/css">
	.st0{fill:#fff;}
</style>
<g>
	<path class="st0" d="M79.1,69.9c0,9.9,1.4,17.1,4.3,21.7c-2.3,0.9-4.4,1.5-6.3,1.9c-1.9,0.4-4,0.6-6.1,0.6c-4.5,0-7.9-0.9-10.3-2.6
		c-2.3-1.8-3.8-4.3-4.4-7.5c-2.8,2.9-6.4,5.3-10.9,7.4c-4.5,2-10.1,3-16.6,3c-3.4,0-6.8-0.5-10.2-1.4c-3.4-0.9-6.5-2.5-9.2-4.6
		c-2.8-2.1-5-5-6.8-8.5C0.9,76.1,0,71.7,0,66.6C0,60.2,1.5,55,4.6,51c3.1-4,6.9-7.2,11.6-9.5c4.6-2.3,9.7-3.9,15.1-4.8
		c5.4-0.9,10.4-1.4,14.9-1.7c1.5-0.1,3-0.2,4.4-0.2c1.4,0,2.8,0,4.1,0v-3.4c0-4.8-1.3-8.3-3.9-10.3c-2.6-2-6.8-3-12.5-3
		c-5.4,0-10.2,0.9-14.4,2.6c-4.2,1.8-8.3,3.8-12.3,6c-1.8-2.1-3.2-4.5-4.2-7.1c-1.1-2.6-1.6-4.5-1.6-5.7c0-1.8,1-3.5,2.9-5.1
		c1.9-1.6,4.6-3.1,8-4.4C20,3.1,23.9,2,28.3,1.2c4.4-0.8,9-1.2,13.9-1.2C49,0,54.7,0.7,59.4,2.1c4.7,1.4,8.5,3.5,11.5,6.4
		c3,2.9,5.1,6.5,6.3,10.8c1.3,4.3,1.9,9.4,1.9,15.2V69.9z M55,48c-0.9,0-1.8,0-2.6,0c-0.9,0-1.8,0.1-2.6,0.2
		c-3.1,0.3-6.2,0.6-9.3,1.1c-3.1,0.5-5.8,1.4-8.2,2.6c-2.4,1.3-4.3,2.9-5.8,4.9c-1.5,2-2.3,4.6-2.3,7.7c0,3.5,1,6.5,3,9
		c2,2.4,5.4,3.7,10.2,3.7c2.4,0,4.6-0.3,6.8-0.9c2.1-0.6,4-1.4,5.7-2.4c1.6-1,2.9-2.1,3.9-3.3c0.9-1.2,1.4-2.3,1.4-3.3V48z"/>
	<path class="st0" d="M176.2,16.8c0-3.1,0.5-5.7,1.5-7.6c1-1.9,2.3-3.5,4-4.5c1.6-1.1,3.5-1.8,5.5-2.2c2-0.4,4-0.6,6-0.6
		c2,0,4,0.1,5.8,0.3c1.9,0.2,2.8,0.3,2.8,0.5V78c0,3.1-0.4,5.7-1.2,7.7c-0.8,2-1.9,3.6-3.4,4.8c-1.4,1.2-3.2,2-5.2,2.5
		c-2,0.4-4.3,0.7-6.8,0.7c-2,0-3.9-0.1-5.7-0.2c-1.8-0.1-2.9-0.3-3.4-0.6V16.8z"/>
	<path class="st0" d="M375.7,69.9c0,9.9,1.4,17.1,4.3,21.7c-2.3,0.9-4.4,1.5-6.3,1.9c-1.9,0.4-4,0.6-6.1,0.6
		c-4.5,0-7.9-0.9-10.3-2.6c-2.3-1.8-3.8-4.3-4.4-7.5c-2.8,2.9-6.4,5.3-10.9,7.4c-4.5,2-10.1,3-16.6,3c-3.4,0-6.8-0.5-10.2-1.4
		c-3.4-0.9-6.5-2.5-9.2-4.6c-2.8-2.1-5-5-6.8-8.5c-1.8-3.6-2.6-7.9-2.6-13.1c0-6.4,1.5-11.6,4.6-15.6c3.1-4,6.9-7.2,11.6-9.5
		c4.6-2.3,9.7-3.9,15.1-4.8c5.4-0.9,10.4-1.4,14.9-1.7c1.5-0.1,3-0.2,4.4-0.2c1.4,0,2.8,0,4.1,0v-3.4c0-4.8-1.3-8.3-3.9-10.3
		c-2.6-2-6.8-3-12.5-3c-5.4,0-10.2,0.9-14.4,2.6c-4.2,1.8-8.3,3.8-12.3,6c-1.8-2.1-3.2-4.5-4.2-7.1c-1.1-2.6-1.6-4.5-1.6-5.7
		c0-1.8,1-3.5,2.9-5.1c1.9-1.6,4.6-3.1,8-4.4c3.4-1.3,7.3-2.4,11.7-3.2c4.4-0.8,9-1.2,13.9-1.2c6.8,0,12.5,0.7,17.2,2.1
		c4.7,1.4,8.5,3.5,11.5,6.4c3,2.9,5.1,6.5,6.3,10.8c1.3,4.3,1.9,9.4,1.9,15.2V69.9z M351.5,48c-0.9,0-1.8,0-2.6,0
		c-0.9,0-1.8,0.1-2.6,0.2c-3.1,0.3-6.2,0.6-9.3,1.1c-3.1,0.5-5.8,1.4-8.2,2.6c-2.4,1.3-4.3,2.9-5.8,4.9c-1.5,2-2.3,4.6-2.3,7.7
		c0,3.5,1,6.5,3,9c2,2.4,5.4,3.7,10.2,3.7c2.4,0,4.6-0.3,6.8-0.9c2.1-0.6,4-1.4,5.7-2.4c1.6-1,2.9-2.1,3.9-3.3
		c0.9-1.2,1.4-2.3,1.4-3.3V48z"/>
	<path class="st0" d="M172,4.4c-1.5-0.6-3.5-1.2-5.8-1.8c-2.3-0.5-4.7-0.8-7.3-0.8c-2.7,0-5,0.4-6.8,1.2c-1.9,0.8-3.4,1.9-4.7,3.5
		c-1.3,1.6-2.4,3.4-3.3,5.6c-0.9,2.2-1.7,4.7-2.5,7.4l-14.6,38l-13.8-37.4c-0.8-2.7-1.6-5.2-2.4-7.5c-0.8-2.3-1.9-4.2-3.3-5.7
		c-1.3-1.6-3-2.8-5-3.7c-2-0.9-4.5-1.4-7.6-1.4C90,1.9,85.4,2.7,81,4.4l31.5,77.8c1.9,6.1,7.5,10.5,14.2,10.5c6.5,0,12-4.2,14-10.1
		L172,4.4z"/>
	<path class="st0" d="M298,4.4c-1.5-0.6-3.5-1.2-5.8-1.8c-2.3-0.5-4.7-0.8-7.3-0.8c-2.7,0-5,0.4-6.8,1.2c-1.9,0.8-3.4,1.9-4.7,3.5
		c-1.3,1.6-2.4,3.4-3.3,5.6c-0.9,2.2-1.7,4.7-2.5,7.4l-14.6,38l-13.8-37.4c-0.8-2.7-1.6-5.2-2.4-7.5c-0.8-2.3-1.9-4.2-3.3-5.7
		c-1.3-1.6-3-2.8-5-3.7c-2-0.9-4.5-1.4-7.6-1.4c-4.9,0-9.5,0.8-13.8,2.5l31.5,77.8c1.9,6.1,7.5,10.5,14.2,10.5c6.5,0,12-4.2,14-10.1
		L298,4.4z"/>
</g>
</svg>
