<?xml version="1.0" encoding="utf-8"?>
<!-- Generator: Adobe Illustrator 23.0.0, SVG Export Plug-In . SVG Version: 6.00 Build 0)  -->
<svg version="1.1" id="Layer_1" xmlns="http://www.w3.org/2000/svg" xmlns:xlink="http://www.w3.org/1999/xlink" x="0px" y="0px"
	 viewBox="0 0 300 300" style="enable-background:new 0 0 300 300;" xml:space="preserve">
<style type="text/css">
	.st0{fill:#92DCE8;}
</style>
<path class="st0" d="M273.7,42.4h-19.5V24.8c0-8.1-6.5-14.6-14.6-14.6h-20.3c-8.1,0-14.6,6.5-14.6,14.6v17.5h-30.5V24.8
	c0-8.1-6.5-14.6-14.6-14.6h-20.3c-8.1,0-14.6,6.5-14.6,14.6v17.5H94.5V24.8c0-8.1-6.5-14.6-14.6-14.6H59.6
	c-8.1,0-14.6,6.5-14.6,14.6v17.5H26.3C11.8,42.4,0,54.2,0,68.7v194.7c0,14.5,11.8,26.3,26.3,26.3h247.4c14.5,0,26.3-11.8,26.3-26.3
	V68.7C300,54.2,288.2,42.4,273.7,42.4z M278.9,263.4c0,2.9-2.4,5.3-5.2,5.3H26.3c-2.9,0-5.3-2.4-5.3-5.3V110.8
	c0-2.9,2.4-5.3,5.3-5.3h247.4c2.9,0,5.2,2.4,5.2,5.3V263.4z"/>
<path class="st0" d="M123.3,249.5C123.3,249.5,123.3,249.5,123.3,249.5c-3.1,0-6.2-1.3-8.3-3.6l-34.7-36.5
	c-4.4-4.6-4.2-11.9,0.4-16.3c4.6-4.4,11.9-4.2,16.3,0.4l26.4,27.8l86.6-91c4.4-4.6,11.7-4.8,16.3-0.4c4.6,4.4,4.8,11.7,0.4,16.3
	l-95,99.7C129.4,248.2,126.4,249.5,123.3,249.5z"/>
</svg>
