<?xml version="1.0" encoding="utf-8"?>
<!-- Generator: Adobe Illustrator 23.0.0, SVG Export Plug-In . SVG Version: 6.00 Build 0)  -->
<svg version="1.1" id="Layer_1" xmlns="http://www.w3.org/2000/svg" xmlns:xlink="http://www.w3.org/1999/xlink" x="0px" y="0px"
	 viewBox="0 0 300 300" style="enable-background:new 0 0 300 300;" xml:space="preserve">
<style type="text/css">
	.st0{fill:#92DCE8;}
</style>
<g>
	<rect x="130.1" y="159.1" class="st0" width="39.9" height="39.9"/>
	<path class="st0" d="M295.3,65.4h-31v8.2c0,5.8-4.7,10.5-10.5,10.5H4.7c-1.7,0-3.3-0.4-4.7-1.1v177.8c0,3,1.2,5.7,3.2,7.7
		c2,2,4.7,3.2,7.7,3.2h278.2c3,0,5.7-1.2,7.7-3.2c2-2,3.2-4.7,3.2-7.7V70.1C300,67.5,297.9,65.4,295.3,65.4z M220.2,199h-50.3v30.3
		c0,11-8.9,20-20,20h-19.9V199H99.7c-11,0-20-8.9-20-20v-19.9h50.3v-30.3c0-11,8.9-20,20-20h19.9v50.3h30.3c11,0,20,8.9,20,20V199z"
		/>
	<path class="st0" d="M4.7,72.3h244.4c2.6,0,4.7-2.1,4.7-4.7V32.9c0-2.6-2.1-4.7-4.7-4.7H4.7c-2.6,0-4.7,2.1-4.7,4.7v34.7
		C0,70.2,2.1,72.3,4.7,72.3z"/>
</g>
</svg>
