<?xml version="1.0" encoding="utf-8"?>
<!-- Generator: Adobe Illustrator 22.0.1, SVG Export Plug-In . SVG Version: 6.00 Build 0)  -->
<svg version="1.1" id="Capa_1" xmlns="http://www.w3.org/2000/svg" xmlns:xlink="http://www.w3.org/1999/xlink" x="0px" y="0px"
	 viewBox="0 0 300 300" style="enable-background:new 0 0 300 300;" xml:space="preserve">
<style type="text/css">
	.st0{fill:#A7A9AB;}
	.st1{display:none;fill:#519DB9;}
	.st2{fill:#575757;}
</style>
<circle class="st0" cx="150" cy="150" r="149"/>
<path class="st1" d="M160.1,150l44.4-44.4c2.8-2.8,2.8-7.3,0-10.1c-2.8-2.8-7.3-2.8-10.1,0L150,139.9l-44.4-44.4
	c-2.8-2.8-7.3-2.8-10.1,0c-2.8,2.8-2.8,7.3,0,10.1l44.4,44.4l-44.4,44.4c-2.8,2.8-2.8,7.3,0,10.1c1.4,1.4,3.2,2.1,5.1,2.1
	c1.8,0,3.7-0.7,5.1-2.1l44.4-44.4l44.4,44.4c1.4,1.4,3.2,2.1,5.1,2.1c1.8,0,3.7-0.7,5.1-2.1c2.8-2.8,2.8-7.3,0-10.1L160.1,150z"/>
<path class="st2" d="M216.9,83.1L216.9,83.1c-4.1-4.1-10.7-4.1-14.8,0L150,135.3L97.9,83.1c-4.1-4.1-10.7-4.1-14.8,0l0,0
	c-4.1,4.1-4.1,10.7,0,14.8l52.1,52.1l-52.1,52.1c-4.1,4.1-4.1,10.7,0,14.8l0,0c4.1,4.1,10.7,4.1,14.8,0l52.1-52.1l52.1,52.1
	c4.1,4.1,10.7,4.1,14.8,0l0,0c4.1-4.1,4.1-10.7,0-14.8L164.8,150l52.1-52.1C221,93.8,221,87.2,216.9,83.1z"/>
</svg>
