<?xml version="1.0" encoding="utf-8"?>
<!-- Generator: Adobe Illustrator 23.0.3, SVG Export Plug-In . SVG Version: 6.00 Build 0)  -->
<svg version="1.1" id="Layer_1" xmlns="http://www.w3.org/2000/svg" xmlns:xlink="http://www.w3.org/1999/xlink" x="0px" y="0px"
	 viewBox="0 0 300 300" style="enable-background:new 0 0 300 300;" xml:space="preserve">
<style type="text/css">
	.st0{fill:#92DCE8;}
</style>
<g>
	<rect x="203.1" y="195.9" class="st0" width="25.6" height="25.6"/>
	<path class="st0" d="M285,230.1l-3-81.4l-24.1-5.3l-12.9-2.8l-29.2-6.4l-54.2,11.8l-11.9,2.6l-0.4,10.3l-0.7,18.5l-0.5,12.9
		l-1.4,39.8c-0.6,14.4,5,28,15.1,37.9c3.7,3.6,8,6.8,12.8,9.4l6.7,3.5l34.5,18.1l41.3-21.6C275.1,267.9,285.7,249.8,285,230.1z
		 M260.9,221.5h-32.2v19.4c0,7.1-5.7,12.8-12.8,12.8h-12.8v-32.2h-19.4c-7.1,0-12.8-5.7-12.8-12.8v-12.8h32.2v-19.4
		c0-7.1,5.7-12.8,12.8-12.8h12.8v32.2h19.4c7.1,0,12.8,5.7,12.8,12.8V221.5z"/>
</g>
<g>
	<path class="st0" d="M48.1,235.7V219h92.4l0.9-25.7H48.1v-16.7H142l0.1-3.4l0.7-20.4l0-1.2H48.1V135h125.4l41.9-9.1V25.4h-19.9V1
		H34.9v24.4H15v243.8h138.4c-8-9.3-12.7-21-13.3-33.5H48.1z M48.1,55.1h134.1v16.7H48.1V55.1z M48.1,95.4h134.1v16.7H48.1V95.4z"/>
</g>
</svg>
