<?xml version="1.0" encoding="utf-8"?>
<!-- Generator: Adobe Illustrator 23.0.3, SVG Export Plug-In . SVG Version: 6.00 Build 0)  -->
<svg version="1.1" id="Layer_1" xmlns="http://www.w3.org/2000/svg" xmlns:xlink="http://www.w3.org/1999/xlink" x="0px" y="0px"
	 viewBox="0 0 300 300" style="enable-background:new 0 0 300 300;" xml:space="preserve">
<style type="text/css">
	.st0{fill:#92DCE8;}
</style>
<g>
	<rect x="212.7" y="201.8" class="st0" width="25.9" height="25.9"/>
	<path class="st0" d="M261.1,152.2c-10.4-5.7-22.4-9-35.1-9c-40.3,0-73,32.7-73,73c0,9.7,1.9,19,5.4,27.6
		c10.9,26.7,37.1,45.5,67.7,45.5c40.3,0,73-32.7,73-73C299,188.6,283.7,164.6,261.1,152.2z M271.2,227.6h-32.6v19.7
		c0,7.2-5.8,13-13,13h-12.9v-32.6H193c-7.2,0-13-5.8-13-13v-12.9h32.6v-19.7c0-7.2,5.8-13,13-13h12.9v32.6h19.7c7.2,0,13,5.8,13,13
		V227.6z"/>
</g>
<g>
	<path class="st0" d="M241.9,36.5h-20v-13c0-7.1-5.7-12.8-12.8-12.8h-17.4c-7.1,0-12.8,5.7-12.8,12.8v13h-26.3v-13
		c0-7.1-5.7-12.8-12.8-12.8h-17.4c-7.1,0-12.8,5.7-12.8,12.8v13H83.2v-13c0-7.1-5.7-12.8-12.8-12.8H53c-7.1,0-12.8,5.7-12.8,12.8v13
		h-20C9.6,36.5,1,45.1,1,55.7v168.8c0,10.6,8.6,19.2,19.2,19.2H148c-3.1-8.8-4.7-18.1-4.7-27.6c0-11.2,2.2-22,6.5-32.2
		c4.2-9.8,10.1-18.7,17.7-26.3c7.6-7.6,16.4-13.5,26.3-17.7c10.2-4.3,21-6.5,32.2-6.5c11.2,0,22,2.2,32.2,6.5c1,0.4,2,0.9,3,1.3
		V55.7C261.1,45.1,252.5,36.5,241.9,36.5z M85.4,226.1H28.9v-38.4h56.5V226.1z M85.4,170.7H28.9v-38.4h56.5V170.7z M85.4,118.8H28.9
		V80.4h56.5V118.8z M162.2,152.3c-5.5,3.6-12.8,12.6-13.9,18.4c-5.8,0-42.5,0-42.5,0v-38.4h56.5
		C162.2,132.3,162.2,146.1,162.2,152.3z M162.2,118.8h-56.5V80.4h56.5V118.8z M237.8,118.8h-56.5V80.4h56.5V118.8z"/>
</g>
</svg>
