<?xml version="1.0" encoding="utf-8"?>
<!-- Generator: Adobe Illustrator 23.0.3, SVG Export Plug-In . SVG Version: 6.00 Build 0)  -->
<svg version="1.1" id="Capa_1" xmlns="http://www.w3.org/2000/svg" xmlns:xlink="http://www.w3.org/1999/xlink" x="0px" y="0px"
	 viewBox="0 0 300 300" style="enable-background:new 0 0 300 300;" xml:space="preserve">
<style type="text/css">
	.st0{fill:#20668B;}
</style>
<g>
	<path class="st0" d="M150,1C97.3,1,54.4,43.9,54.4,96.6c0,49.7,84.1,191.9,87.7,197.9c1.7,2.8,4.7,4.5,7.9,4.5
		c3.2,0,6.2-1.7,7.9-4.5c3.6-6,87.7-148.2,87.7-197.9C245.6,43.9,202.7,1,150,1z M150,146.6c-27.6,0-50-22.4-50-50
		c0-27.6,22.4-50,50-50c27.6,0,50,22.4,50,50C200,124.2,177.6,146.6,150,146.6z"/>
</g>
</svg>
