<svg xmlns="http://www.w3.org/2000/svg" viewBox="0 0 277.67 114.79"><defs><style>.cls-1{fill:#2a7491;}.cls-2{fill:#4a9bb4;}</style></defs><title>vivaMasRecurso 1</title><g id="Capa_2" data-name="Capa 2"><g id="Capa_1-2" data-name="Capa 1"><path class="cls-1" d="M74.2,54.44a13,13,0,0,1,1.17-5.95A9.13,9.13,0,0,1,78.46,45a11.55,11.55,0,0,1,4.25-1.68,25,25,0,0,1,4.7-.44,44.6,44.6,0,0,1,4.55.22,6.86,6.86,0,0,1,2.21.36v58.74a16,16,0,0,1-1,6,9.15,9.15,0,0,1-2.64,3.75,9.42,9.42,0,0,1-4,1.91,24.89,24.89,0,0,1-5.28.51q-2.35,0-4.41-.15a8.29,8.29,0,0,1-2.64-.44Z"/><path class="cls-1" d="M229.63,95.85q0,11.6,3.38,16.89a28.71,28.71,0,0,1-4.92,1.46,24.59,24.59,0,0,1-4.77.45q-5.3,0-8-2.06a9.24,9.24,0,0,1-3.45-5.87,26.33,26.33,0,0,1-8.52,5.72,31.67,31.67,0,0,1-12.92,2.35,29.67,29.67,0,0,1-7.93-1.09,20.86,20.86,0,0,1-7.19-3.59,18.56,18.56,0,0,1-5.29-6.66A22.86,22.86,0,0,1,168,93.27q0-7.45,3.6-12.15a25.74,25.74,0,0,1,9-7.39A40.88,40.88,0,0,1,192.33,70a113.71,113.71,0,0,1,11.6-1.32c1.18-.09,2.33-.15,3.45-.15h3.16V65.86c0-3.76-1-6.43-3-8s-5.26-2.38-9.77-2.38a28.91,28.91,0,0,0-11.23,2.06,91.87,91.87,0,0,0-9.62,4.7,21.5,21.5,0,0,1-3.3-5.51,13.08,13.08,0,0,1-1.25-4.48,5.31,5.31,0,0,1,2.27-4,22.42,22.42,0,0,1,6.25-3.45,50.69,50.69,0,0,1,9.1-2.5,60.08,60.08,0,0,1,10.87-1A48.55,48.55,0,0,1,214.28,43a21,21,0,0,1,9,5,19,19,0,0,1,4.92,8.45,42.62,42.62,0,0,1,1.47,11.82Zm-18.8-17h-2.05a14.28,14.28,0,0,0-2.06.15q-3.67.3-7.27.88a20.62,20.62,0,0,0-6.38,2.06,13.34,13.34,0,0,0-4.56,3.82,9.77,9.77,0,0,0-1.76,6,10.61,10.61,0,0,0,2.35,7c1.56,1.91,4.21,2.87,7.93,2.87a18.68,18.68,0,0,0,5.29-.74,17.87,17.87,0,0,0,4.4-1.91,11.28,11.28,0,0,0,3-2.57,4.23,4.23,0,0,0,1.1-2.57Z"/><path class="cls-1" d="M70.86,44.81a26.68,26.68,0,0,0-4.49-1.37,26.19,26.19,0,0,0-5.69-.6,13.68,13.68,0,0,0-5.32.91,9.18,9.18,0,0,0-3.67,2.73,16.8,16.8,0,0,0-2.55,4.4,55.22,55.22,0,0,0-2,5.76L35.81,86.22,25,57.1q-.9-3.18-1.87-5.84a14.27,14.27,0,0,0-2.55-4.48,11.33,11.33,0,0,0-3.9-2.88,14.21,14.21,0,0,0-5.91-1.06A29.48,29.48,0,0,0,0,44.81l24.52,60.64a11.54,11.54,0,0,0,22,.31Z"/><path class="cls-1" d="M169.07,44.81a27.12,27.12,0,0,0-4.5-1.37,26.13,26.13,0,0,0-5.69-.6,13.72,13.72,0,0,0-5.32.91,9.25,9.25,0,0,0-3.67,2.73,16.8,16.8,0,0,0-2.55,4.4,55.22,55.22,0,0,0-2,5.76L134,86.22,123.22,57.1q-.9-3.18-1.87-5.84a14.27,14.27,0,0,0-2.55-4.48,11.39,11.39,0,0,0-3.89-2.88A14.26,14.26,0,0,0,109,42.84a29.52,29.52,0,0,0-10.79,2l24.52,60.64a11.54,11.54,0,0,0,22,.31Z"/><path class="cls-1" d="M224,19.21h19.21a0,0,0,0,1,0,0V34.44a0,0,0,0,1,0,0H231.66A7.63,7.63,0,0,1,224,26.81v-7.6A0,0,0,0,1,224,19.21Z"/><path class="cls-1" d="M241.25,36.43h19.21a0,0,0,0,1,0,0V51.66a0,0,0,0,1,0,0H248.88A7.63,7.63,0,0,1,241.25,44v-7.6A0,0,0,0,1,241.25,36.43Z" transform="translate(206.81 294.89) rotate(-90)"/><path class="cls-2" d="M258.47,19.21h19.21a0,0,0,0,1,0,0V34.44a0,0,0,0,1,0,0H266.1a7.63,7.63,0,0,1-7.63-7.63v-7.6A0,0,0,0,1,258.47,19.21Z" transform="translate(536.14 53.64) rotate(180)"/><path class="cls-2" d="M241.25,2h19.21a0,0,0,0,1,0,0V17.22a0,0,0,0,1,0,0H248.88a7.63,7.63,0,0,1-7.63-7.63V2A0,0,0,0,1,241.25,2Z" transform="translate(260.45 -241.25) rotate(90)"/></g></g></svg>