<?xml version="1.0" encoding="utf-8"?>
<!-- Generator: Adobe Illustrator 23.0.3, SVG Export Plug-In . SVG Version: 6.00 Build 0)  -->
<svg version="1.1" id="Capa_1" xmlns="http://www.w3.org/2000/svg" xmlns:xlink="http://www.w3.org/1999/xlink" x="0px" y="0px"
	 viewBox="0 0 300 300" style="enable-background:new 0 0 300 300;" xml:space="preserve">
<style type="text/css">
	.st0{fill:#FFFFFF;}
	.st1{fill:#F61C0D;}
</style>
<g>
	<rect x="40.9" y="81.6" class="st0" width="226" height="142.5"/>
	<path class="st1" d="M150,1C68.1,1,1,68.1,1,150c0,81.9,67,149,149,149c81.9,0,149-67.1,149-149C299,68.1,231.9,1,150,1z
		 M239.1,195.1c-2.1,8.1-8.4,14.4-16.4,16.5c-14.5,3.9-72.7,3.9-72.7,3.9s-58.2,0-72.7-3.9c-8-2.2-14.3-8.5-16.4-16.5
		C57,180.5,57,150,57,150s0-30.5,3.9-45.1c2.1-8.1,8.4-14.4,16.4-16.5c14.5-3.9,72.7-3.9,72.7-3.9s58.2,0,72.7,3.9
		c8,2.2,14.3,8.5,16.4,16.5C243,119.5,243,150,243,150S243,180.5,239.1,195.1z"/>
	<polygon class="st1" points="131,177.7 179.6,150 131,122.3 	"/>
</g>
</svg>
